<?xml version="1.0" encoding="utf-8" standalone="no"?>
<!DOCTYPE svg PUBLIC "-//W3C//DTD SVG 1.1//EN"
  "http://www.w3.org/Graphics/SVG/1.1/DTD/svg11.dtd">
<svg xmlns:xlink="http://www.w3.org/1999/xlink" width="833.464656pt" height="474.616006pt" viewBox="0 0 833.464656 474.616006" xmlns="http://www.w3.org/2000/svg" version="1.1">
 <metadata>
  <rdf:RDF xmlns:dc="http://purl.org/dc/elements/1.1/" xmlns:cc="http://creativecommons.org/ns#" xmlns:rdf="http://www.w3.org/1999/02/22-rdf-syntax-ns#">
   <cc:Work>
    <dc:type rdf:resource="http://purl.org/dc/dcmitype/StillImage"/>
    <dc:date>2026-03-19T21:08:24.161639</dc:date>
    <dc:format>image/svg+xml</dc:format>
    <dc:creator>
     <cc:Agent>
      <dc:title>Matplotlib v3.10.7, https://matplotlib.org/</dc:title>
     </cc:Agent>
    </dc:creator>
   </cc:Work>
  </rdf:RDF>
 </metadata>
 <defs>
  <style type="text/css">*{stroke-linejoin: round; stroke-linecap: butt}</style>
 </defs>
 <g id="figure_1">
  <g id="patch_1">
   <path d="M 0 474.616006 
L 833.464656 474.616006 
L 833.464656 0 
L 0 0 
z
" style="fill: #ffffff"/>
  </g>
  <g id="axes_1">
   <g id="patch_2">
    <path d="M 101.232656 361.108864 
L 826.264656 361.108864 
L 826.264656 7.2 
L 101.232656 7.2 
z
" style="fill: #ffffff"/>
   </g>
   <g id="patch_3">
    <path d="M 128.169609 184.154432 
L 159.889759 184.154432 
L 159.889759 199.002578 
L 128.169609 199.002578 
z
" clip-path="url(#pdbf476090e)" style="fill: #1f77b4; opacity: 0.85"/>
   </g>
   <g id="patch_4">
    <path d="M 163.41422 184.154432 
L 195.13437 184.154432 
L 195.13437 209.104839 
L 163.41422 209.104839 
z
" clip-path="url(#pdbf476090e)" style="fill: #ff7f0e; opacity: 0.85"/>
   </g>
   <g id="patch_5">
    <path d="M 228.868498 184.154432 
L 260.588648 184.154432 
L 260.588648 202.592371 
L 228.868498 202.592371 
z
" clip-path="url(#pdbf476090e)" style="fill: #1f77b4; opacity: 0.85"/>
   </g>
   <g id="patch_6">
    <path d="M 264.113109 184.154432 
L 295.833259 184.154432 
L 295.833259 194.364545 
L 264.113109 194.364545 
z
" clip-path="url(#pdbf476090e)" style="fill: #ff7f0e; opacity: 0.85"/>
   </g>
   <g id="patch_7">
    <path d="M 329.567387 184.154432 
L 361.287537 184.154432 
L 361.287537 191.392675 
L 329.567387 191.392675 
z
" clip-path="url(#pdbf476090e)" style="fill: #1f77b4; opacity: 0.85"/>
   </g>
   <g id="patch_8">
    <path d="M 364.811998 184.154432 
L 396.532148 184.154432 
L 396.532148 202.526367 
L 364.811998 202.526367 
z
" clip-path="url(#pdbf476090e)" style="fill: #ff7f0e; opacity: 0.85"/>
   </g>
   <g id="patch_9">
    <path d="M 430.266276 184.154432 
L 461.986426 184.154432 
L 461.986426 184.468028 
L 430.266276 184.468028 
z
" clip-path="url(#pdbf476090e)" style="fill: #1f77b4; opacity: 0.85"/>
   </g>
   <g id="patch_10">
    <path d="M 465.510887 184.154432 
L 497.231037 184.154432 
L 497.231037 184.661952 
L 465.510887 184.661952 
z
" clip-path="url(#pdbf476090e)" style="fill: #ff7f0e; opacity: 0.85"/>
   </g>
   <g id="patch_11">
    <path d="M 530.965165 184.154432 
L 562.685315 184.154432 
L 562.685315 211.720428 
L 530.965165 211.720428 
z
" clip-path="url(#pdbf476090e)" style="fill: #1f77b4; opacity: 0.85"/>
   </g>
   <g id="patch_12">
    <path d="M 566.209776 184.154432 
L 597.929926 184.154432 
L 597.929926 216.720158 
L 566.209776 216.720158 
z
" clip-path="url(#pdbf476090e)" style="fill: #ff7f0e; opacity: 0.85"/>
   </g>
   <g id="patch_13">
    <path d="M 631.664053 184.154432 
L 663.384203 184.154432 
L 663.384203 189.333263 
L 631.664053 189.333263 
z
" clip-path="url(#pdbf476090e)" style="fill: #1f77b4; opacity: 0.85"/>
   </g>
   <g id="patch_14">
    <path d="M 666.908665 184.154432 
L 698.628815 184.154432 
L 698.628815 200.657156 
L 666.908665 200.657156 
z
" clip-path="url(#pdbf476090e)" style="fill: #ff7f0e; opacity: 0.85"/>
   </g>
   <g id="patch_15">
    <path d="M 732.362942 184.154432 
L 764.083092 184.154432 
L 764.083092 191.635975 
L 732.362942 191.635975 
z
" clip-path="url(#pdbf476090e)" style="fill: #1f77b4; opacity: 0.85"/>
   </g>
   <g id="patch_16">
    <path d="M 767.607553 184.154432 
L 799.327703 184.154432 
L 799.327703 201.35264 
L 767.607553 201.35264 
z
" clip-path="url(#pdbf476090e)" style="fill: #ff7f0e; opacity: 0.85"/>
   </g>
   <g id="matplotlib.axis_1">
    <g id="xtick_1">
     <g id="line2d_1">
      <path d="M 161.65199 361.108864 
L 161.65199 7.2 
" clip-path="url(#pdbf476090e)" style="fill: none; stroke-dasharray: 1.85,0.8; stroke-dashoffset: 0; stroke: #b0b0b0; stroke-width: 0.5"/>
     </g>
     <g id="line2d_2">
      <defs>
       <path id="m49385e3067" d="M 0 0 
L 0 3.5 
" style="stroke: #000000; stroke-width: 0.8"/>
      </defs>
      <g>
       <use xlink:href="#m49385e3067" x="161.65199" y="361.108864" style="stroke: #000000; stroke-width: 0.8"/>
      </g>
     </g>
     <g id="text_1">
      <!-- BPI12 -->
      <g transform="translate(124.813826 411.581015) rotate(-45) scale(0.17 -0.17)">
       <defs>
        <path id="DejaVuSans-42" d="M 1259 2228 
L 1259 519 
L 2272 519 
Q 2781 519 3026 730 
Q 3272 941 3272 1375 
Q 3272 1813 3026 2020 
Q 2781 2228 2272 2228 
L 1259 2228 
z
M 1259 4147 
L 1259 2741 
L 2194 2741 
Q 2656 2741 2882 2914 
Q 3109 3088 3109 3444 
Q 3109 3797 2882 3972 
Q 2656 4147 2194 4147 
L 1259 4147 
z
M 628 4666 
L 2241 4666 
Q 2963 4666 3353 4366 
Q 3744 4066 3744 3513 
Q 3744 3084 3544 2831 
Q 3344 2578 2956 2516 
Q 3422 2416 3680 2098 
Q 3938 1781 3938 1306 
Q 3938 681 3513 340 
Q 3088 0 2303 0 
L 628 0 
L 628 4666 
z
" transform="scale(0.015625)"/>
        <path id="DejaVuSans-50" d="M 1259 4147 
L 1259 2394 
L 2053 2394 
Q 2494 2394 2734 2622 
Q 2975 2850 2975 3272 
Q 2975 3691 2734 3919 
Q 2494 4147 2053 4147 
L 1259 4147 
z
M 628 4666 
L 2053 4666 
Q 2838 4666 3239 4311 
Q 3641 3956 3641 3272 
Q 3641 2581 3239 2228 
Q 2838 1875 2053 1875 
L 1259 1875 
L 1259 0 
L 628 0 
L 628 4666 
z
" transform="scale(0.015625)"/>
        <path id="DejaVuSans-49" d="M 628 4666 
L 1259 4666 
L 1259 0 
L 628 0 
L 628 4666 
z
" transform="scale(0.015625)"/>
        <path id="DejaVuSans-31" d="M 794 531 
L 1825 531 
L 1825 4091 
L 703 3866 
L 703 4441 
L 1819 4666 
L 2450 4666 
L 2450 531 
L 3481 531 
L 3481 0 
L 794 0 
L 794 531 
z
" transform="scale(0.015625)"/>
        <path id="DejaVuSans-32" d="M 1228 531 
L 3431 531 
L 3431 0 
L 469 0 
L 469 531 
Q 828 903 1448 1529 
Q 2069 2156 2228 2338 
Q 2531 2678 2651 2914 
Q 2772 3150 2772 3378 
Q 2772 3750 2511 3984 
Q 2250 4219 1831 4219 
Q 1534 4219 1204 4116 
Q 875 4013 500 3803 
L 500 4441 
Q 881 4594 1212 4672 
Q 1544 4750 1819 4750 
Q 2544 4750 2975 4387 
Q 3406 4025 3406 3419 
Q 3406 3131 3298 2873 
Q 3191 2616 2906 2266 
Q 2828 2175 2409 1742 
Q 1991 1309 1228 531 
z
" transform="scale(0.015625)"/>
       </defs>
       <use xlink:href="#DejaVuSans-42"/>
       <use xlink:href="#DejaVuSans-50" transform="translate(68.603516 0)"/>
       <use xlink:href="#DejaVuSans-49" transform="translate(128.90625 0)"/>
       <use xlink:href="#DejaVuSans-31" transform="translate(158.398438 0)"/>
       <use xlink:href="#DejaVuSans-32" transform="translate(222.021484 0)"/>
      </g>
     </g>
    </g>
    <g id="xtick_2">
     <g id="line2d_3">
      <path d="M 262.350878 361.108864 
L 262.350878 7.2 
" clip-path="url(#pdbf476090e)" style="fill: none; stroke-dasharray: 1.85,0.8; stroke-dashoffset: 0; stroke: #b0b0b0; stroke-width: 0.5"/>
     </g>
     <g id="line2d_4">
      <g>
       <use xlink:href="#m49385e3067" x="262.350878" y="361.108864" style="stroke: #000000; stroke-width: 0.8"/>
      </g>
     </g>
     <g id="text_2">
      <!-- BPI15 -->
      <g transform="translate(225.512714 411.581015) rotate(-45) scale(0.17 -0.17)">
       <defs>
        <path id="DejaVuSans-35" d="M 691 4666 
L 3169 4666 
L 3169 4134 
L 1269 4134 
L 1269 2991 
Q 1406 3038 1543 3061 
Q 1681 3084 1819 3084 
Q 2600 3084 3056 2656 
Q 3513 2228 3513 1497 
Q 3513 744 3044 326 
Q 2575 -91 1722 -91 
Q 1428 -91 1123 -41 
Q 819 9 494 109 
L 494 744 
Q 775 591 1075 516 
Q 1375 441 1709 441 
Q 2250 441 2565 725 
Q 2881 1009 2881 1497 
Q 2881 1984 2565 2268 
Q 2250 2553 1709 2553 
Q 1456 2553 1204 2497 
Q 953 2441 691 2322 
L 691 4666 
z
" transform="scale(0.015625)"/>
       </defs>
       <use xlink:href="#DejaVuSans-42"/>
       <use xlink:href="#DejaVuSans-50" transform="translate(68.603516 0)"/>
       <use xlink:href="#DejaVuSans-49" transform="translate(128.90625 0)"/>
       <use xlink:href="#DejaVuSans-31" transform="translate(158.398438 0)"/>
       <use xlink:href="#DejaVuSans-35" transform="translate(222.021484 0)"/>
      </g>
     </g>
    </g>
    <g id="xtick_3">
     <g id="line2d_5">
      <path d="M 363.049767 361.108864 
L 363.049767 7.2 
" clip-path="url(#pdbf476090e)" style="fill: none; stroke-dasharray: 1.85,0.8; stroke-dashoffset: 0; stroke: #b0b0b0; stroke-width: 0.5"/>
     </g>
     <g id="line2d_6">
      <g>
       <use xlink:href="#m49385e3067" x="363.049767" y="361.108864" style="stroke: #000000; stroke-width: 0.8"/>
      </g>
     </g>
     <g id="text_3">
      <!-- BPI17 -->
      <g transform="translate(326.211603 411.581015) rotate(-45) scale(0.17 -0.17)">
       <defs>
        <path id="DejaVuSans-37" d="M 525 4666 
L 3525 4666 
L 3525 4397 
L 1831 0 
L 1172 0 
L 2766 4134 
L 525 4134 
L 525 4666 
z
" transform="scale(0.015625)"/>
       </defs>
       <use xlink:href="#DejaVuSans-42"/>
       <use xlink:href="#DejaVuSans-50" transform="translate(68.603516 0)"/>
       <use xlink:href="#DejaVuSans-49" transform="translate(128.90625 0)"/>
       <use xlink:href="#DejaVuSans-31" transform="translate(158.398438 0)"/>
       <use xlink:href="#DejaVuSans-37" transform="translate(222.021484 0)"/>
      </g>
     </g>
    </g>
    <g id="xtick_4">
     <g id="line2d_7">
      <path d="M 463.748656 361.108864 
L 463.748656 7.2 
" clip-path="url(#pdbf476090e)" style="fill: none; stroke-dasharray: 1.85,0.8; stroke-dashoffset: 0; stroke: #b0b0b0; stroke-width: 0.5"/>
     </g>
     <g id="line2d_8">
      <g>
       <use xlink:href="#m49385e3067" x="463.748656" y="361.108864" style="stroke: #000000; stroke-width: 0.8"/>
      </g>
     </g>
     <g id="text_4">
      <!-- BPI19 -->
      <g transform="translate(426.910492 411.581015) rotate(-45) scale(0.17 -0.17)">
       <defs>
        <path id="DejaVuSans-39" d="M 703 97 
L 703 672 
Q 941 559 1184 500 
Q 1428 441 1663 441 
Q 2288 441 2617 861 
Q 2947 1281 2994 2138 
Q 2813 1869 2534 1725 
Q 2256 1581 1919 1581 
Q 1219 1581 811 2004 
Q 403 2428 403 3163 
Q 403 3881 828 4315 
Q 1253 4750 1959 4750 
Q 2769 4750 3195 4129 
Q 3622 3509 3622 2328 
Q 3622 1225 3098 567 
Q 2575 -91 1691 -91 
Q 1453 -91 1209 -44 
Q 966 3 703 97 
z
M 1959 2075 
Q 2384 2075 2632 2365 
Q 2881 2656 2881 3163 
Q 2881 3666 2632 3958 
Q 2384 4250 1959 4250 
Q 1534 4250 1286 3958 
Q 1038 3666 1038 3163 
Q 1038 2656 1286 2365 
Q 1534 2075 1959 2075 
z
" transform="scale(0.015625)"/>
       </defs>
       <use xlink:href="#DejaVuSans-42"/>
       <use xlink:href="#DejaVuSans-50" transform="translate(68.603516 0)"/>
       <use xlink:href="#DejaVuSans-49" transform="translate(128.90625 0)"/>
       <use xlink:href="#DejaVuSans-31" transform="translate(158.398438 0)"/>
       <use xlink:href="#DejaVuSans-39" transform="translate(222.021484 0)"/>
      </g>
     </g>
    </g>
    <g id="xtick_5">
     <g id="line2d_9">
      <path d="M 564.447545 361.108864 
L 564.447545 7.2 
" clip-path="url(#pdbf476090e)" style="fill: none; stroke-dasharray: 1.85,0.8; stroke-dashoffset: 0; stroke: #b0b0b0; stroke-width: 0.5"/>
     </g>
     <g id="line2d_10">
      <g>
       <use xlink:href="#m49385e3067" x="564.447545" y="361.108864" style="stroke: #000000; stroke-width: 0.8"/>
      </g>
     </g>
     <g id="text_5">
      <!-- BPI20_PTC -->
      <g transform="translate(498.986693 439.657132) rotate(-45) scale(0.17 -0.17)">
       <defs>
        <path id="DejaVuSans-30" d="M 2034 4250 
Q 1547 4250 1301 3770 
Q 1056 3291 1056 2328 
Q 1056 1369 1301 889 
Q 1547 409 2034 409 
Q 2525 409 2770 889 
Q 3016 1369 3016 2328 
Q 3016 3291 2770 3770 
Q 2525 4250 2034 4250 
z
M 2034 4750 
Q 2819 4750 3233 4129 
Q 3647 3509 3647 2328 
Q 3647 1150 3233 529 
Q 2819 -91 2034 -91 
Q 1250 -91 836 529 
Q 422 1150 422 2328 
Q 422 3509 836 4129 
Q 1250 4750 2034 4750 
z
" transform="scale(0.015625)"/>
        <path id="DejaVuSans-5f" d="M 3263 -1063 
L 3263 -1509 
L -63 -1509 
L -63 -1063 
L 3263 -1063 
z
" transform="scale(0.015625)"/>
        <path id="DejaVuSans-54" d="M -19 4666 
L 3928 4666 
L 3928 4134 
L 2272 4134 
L 2272 0 
L 1638 0 
L 1638 4134 
L -19 4134 
L -19 4666 
z
" transform="scale(0.015625)"/>
        <path id="DejaVuSans-43" d="M 4122 4306 
L 4122 3641 
Q 3803 3938 3442 4084 
Q 3081 4231 2675 4231 
Q 1875 4231 1450 3742 
Q 1025 3253 1025 2328 
Q 1025 1406 1450 917 
Q 1875 428 2675 428 
Q 3081 428 3442 575 
Q 3803 722 4122 1019 
L 4122 359 
Q 3791 134 3420 21 
Q 3050 -91 2638 -91 
Q 1578 -91 968 557 
Q 359 1206 359 2328 
Q 359 3453 968 4101 
Q 1578 4750 2638 4750 
Q 3056 4750 3426 4639 
Q 3797 4528 4122 4306 
z
" transform="scale(0.015625)"/>
       </defs>
       <use xlink:href="#DejaVuSans-42"/>
       <use xlink:href="#DejaVuSans-50" transform="translate(68.603516 0)"/>
       <use xlink:href="#DejaVuSans-49" transform="translate(128.90625 0)"/>
       <use xlink:href="#DejaVuSans-32" transform="translate(158.398438 0)"/>
       <use xlink:href="#DejaVuSans-30" transform="translate(222.021484 0)"/>
       <use xlink:href="#DejaVuSans-5f" transform="translate(285.644531 0)"/>
       <use xlink:href="#DejaVuSans-50" transform="translate(335.644531 0)"/>
       <use xlink:href="#DejaVuSans-54" transform="translate(395.947266 0)"/>
       <use xlink:href="#DejaVuSans-43" transform="translate(451.15625 0)"/>
      </g>
     </g>
    </g>
    <g id="xtick_6">
     <g id="line2d_11">
      <path d="M 665.146434 361.108864 
L 665.146434 7.2 
" clip-path="url(#pdbf476090e)" style="fill: none; stroke-dasharray: 1.85,0.8; stroke-dashoffset: 0; stroke: #b0b0b0; stroke-width: 0.5"/>
     </g>
     <g id="line2d_12">
      <g>
       <use xlink:href="#m49385e3067" x="665.146434" y="361.108864" style="stroke: #000000; stroke-width: 0.8"/>
      </g>
     </g>
     <g id="text_6">
      <!-- BPI20_RfP -->
      <g transform="translate(602.131066 437.42389) rotate(-45) scale(0.17 -0.17)">
       <defs>
        <path id="DejaVuSans-52" d="M 2841 2188 
Q 3044 2119 3236 1894 
Q 3428 1669 3622 1275 
L 4263 0 
L 3584 0 
L 2988 1197 
Q 2756 1666 2539 1819 
Q 2322 1972 1947 1972 
L 1259 1972 
L 1259 0 
L 628 0 
L 628 4666 
L 2053 4666 
Q 2853 4666 3247 4331 
Q 3641 3997 3641 3322 
Q 3641 2881 3436 2590 
Q 3231 2300 2841 2188 
z
M 1259 4147 
L 1259 2491 
L 2053 2491 
Q 2509 2491 2742 2702 
Q 2975 2913 2975 3322 
Q 2975 3731 2742 3939 
Q 2509 4147 2053 4147 
L 1259 4147 
z
" transform="scale(0.015625)"/>
        <path id="DejaVuSans-66" d="M 2375 4863 
L 2375 4384 
L 1825 4384 
Q 1516 4384 1395 4259 
Q 1275 4134 1275 3809 
L 1275 3500 
L 2222 3500 
L 2222 3053 
L 1275 3053 
L 1275 0 
L 697 0 
L 697 3053 
L 147 3053 
L 147 3500 
L 697 3500 
L 697 3744 
Q 697 4328 969 4595 
Q 1241 4863 1831 4863 
L 2375 4863 
z
" transform="scale(0.015625)"/>
       </defs>
       <use xlink:href="#DejaVuSans-42"/>
       <use xlink:href="#DejaVuSans-50" transform="translate(68.603516 0)"/>
       <use xlink:href="#DejaVuSans-49" transform="translate(128.90625 0)"/>
       <use xlink:href="#DejaVuSans-32" transform="translate(158.398438 0)"/>
       <use xlink:href="#DejaVuSans-30" transform="translate(222.021484 0)"/>
       <use xlink:href="#DejaVuSans-5f" transform="translate(285.644531 0)"/>
       <use xlink:href="#DejaVuSans-52" transform="translate(335.644531 0)"/>
       <use xlink:href="#DejaVuSans-66" transform="translate(405.126953 0)"/>
       <use xlink:href="#DejaVuSans-50" transform="translate(440.332031 0)"/>
      </g>
     </g>
    </g>
    <g id="xtick_7">
     <g id="line2d_13">
      <path d="M 765.845323 361.108864 
L 765.845323 7.2 
" clip-path="url(#pdbf476090e)" style="fill: none; stroke-dasharray: 1.85,0.8; stroke-dashoffset: 0; stroke: #b0b0b0; stroke-width: 0.5"/>
     </g>
     <g id="line2d_14">
      <g>
       <use xlink:href="#m49385e3067" x="765.845323" y="361.108864" style="stroke: #000000; stroke-width: 0.8"/>
      </g>
     </g>
     <g id="text_7">
      <!-- BPI20_TPD -->
      <g transform="translate(698.81613 441.225473) rotate(-45) scale(0.17 -0.17)">
       <defs>
        <path id="DejaVuSans-44" d="M 1259 4147 
L 1259 519 
L 2022 519 
Q 2988 519 3436 956 
Q 3884 1394 3884 2338 
Q 3884 3275 3436 3711 
Q 2988 4147 2022 4147 
L 1259 4147 
z
M 628 4666 
L 1925 4666 
Q 3281 4666 3915 4102 
Q 4550 3538 4550 2338 
Q 4550 1131 3912 565 
Q 3275 0 1925 0 
L 628 0 
L 628 4666 
z
" transform="scale(0.015625)"/>
       </defs>
       <use xlink:href="#DejaVuSans-42"/>
       <use xlink:href="#DejaVuSans-50" transform="translate(68.603516 0)"/>
       <use xlink:href="#DejaVuSans-49" transform="translate(128.90625 0)"/>
       <use xlink:href="#DejaVuSans-32" transform="translate(158.398438 0)"/>
       <use xlink:href="#DejaVuSans-30" transform="translate(222.021484 0)"/>
       <use xlink:href="#DejaVuSans-5f" transform="translate(285.644531 0)"/>
       <use xlink:href="#DejaVuSans-54" transform="translate(335.644531 0)"/>
       <use xlink:href="#DejaVuSans-50" transform="translate(396.728516 0)"/>
       <use xlink:href="#DejaVuSans-44" transform="translate(457.03125 0)"/>
      </g>
     </g>
    </g>
    <g id="text_8">
     <!-- Dataset -->
     <g transform="translate(424.589281 463.256631) scale(0.2 -0.2)">
      <defs>
       <path id="DejaVuSans-61" d="M 2194 1759 
Q 1497 1759 1228 1600 
Q 959 1441 959 1056 
Q 959 750 1161 570 
Q 1363 391 1709 391 
Q 2188 391 2477 730 
Q 2766 1069 2766 1631 
L 2766 1759 
L 2194 1759 
z
M 3341 1997 
L 3341 0 
L 2766 0 
L 2766 531 
Q 2569 213 2275 61 
Q 1981 -91 1556 -91 
Q 1019 -91 701 211 
Q 384 513 384 1019 
Q 384 1609 779 1909 
Q 1175 2209 1959 2209 
L 2766 2209 
L 2766 2266 
Q 2766 2663 2505 2880 
Q 2244 3097 1772 3097 
Q 1472 3097 1187 3025 
Q 903 2953 641 2809 
L 641 3341 
Q 956 3463 1253 3523 
Q 1550 3584 1831 3584 
Q 2591 3584 2966 3190 
Q 3341 2797 3341 1997 
z
" transform="scale(0.015625)"/>
       <path id="DejaVuSans-74" d="M 1172 4494 
L 1172 3500 
L 2356 3500 
L 2356 3053 
L 1172 3053 
L 1172 1153 
Q 1172 725 1289 603 
Q 1406 481 1766 481 
L 2356 481 
L 2356 0 
L 1766 0 
Q 1100 0 847 248 
Q 594 497 594 1153 
L 594 3053 
L 172 3053 
L 172 3500 
L 594 3500 
L 594 4494 
L 1172 4494 
z
" transform="scale(0.015625)"/>
       <path id="DejaVuSans-73" d="M 2834 3397 
L 2834 2853 
Q 2591 2978 2328 3040 
Q 2066 3103 1784 3103 
Q 1356 3103 1142 2972 
Q 928 2841 928 2578 
Q 928 2378 1081 2264 
Q 1234 2150 1697 2047 
L 1894 2003 
Q 2506 1872 2764 1633 
Q 3022 1394 3022 966 
Q 3022 478 2636 193 
Q 2250 -91 1575 -91 
Q 1294 -91 989 -36 
Q 684 19 347 128 
L 347 722 
Q 666 556 975 473 
Q 1284 391 1588 391 
Q 1994 391 2212 530 
Q 2431 669 2431 922 
Q 2431 1156 2273 1281 
Q 2116 1406 1581 1522 
L 1381 1569 
Q 847 1681 609 1914 
Q 372 2147 372 2553 
Q 372 3047 722 3315 
Q 1072 3584 1716 3584 
Q 2034 3584 2315 3537 
Q 2597 3491 2834 3397 
z
" transform="scale(0.015625)"/>
       <path id="DejaVuSans-65" d="M 3597 1894 
L 3597 1613 
L 953 1613 
Q 991 1019 1311 708 
Q 1631 397 2203 397 
Q 2534 397 2845 478 
Q 3156 559 3463 722 
L 3463 178 
Q 3153 47 2828 -22 
Q 2503 -91 2169 -91 
Q 1331 -91 842 396 
Q 353 884 353 1716 
Q 353 2575 817 3079 
Q 1281 3584 2069 3584 
Q 2775 3584 3186 3129 
Q 3597 2675 3597 1894 
z
M 3022 2063 
Q 3016 2534 2758 2815 
Q 2500 3097 2075 3097 
Q 1594 3097 1305 2825 
Q 1016 2553 972 2059 
L 3022 2063 
z
" transform="scale(0.015625)"/>
      </defs>
      <use xlink:href="#DejaVuSans-44"/>
      <use xlink:href="#DejaVuSans-61" transform="translate(77.001953 0)"/>
      <use xlink:href="#DejaVuSans-74" transform="translate(138.28125 0)"/>
      <use xlink:href="#DejaVuSans-61" transform="translate(177.490234 0)"/>
      <use xlink:href="#DejaVuSans-73" transform="translate(238.769531 0)"/>
      <use xlink:href="#DejaVuSans-65" transform="translate(290.869141 0)"/>
      <use xlink:href="#DejaVuSans-74" transform="translate(352.392578 0)"/>
     </g>
    </g>
   </g>
   <g id="matplotlib.axis_2">
    <g id="ytick_1">
     <g id="line2d_15">
      <path d="M 101.232656 332.623821 
L 826.264656 332.623821 
" clip-path="url(#pdbf476090e)" style="fill: none; stroke-dasharray: 1.85,0.8; stroke-dashoffset: 0; stroke: #b0b0b0; stroke-width: 0.5"/>
     </g>
     <g id="line2d_16">
      <defs>
       <path id="m1fc2a0c2e5" d="M 0 0 
L -3.5 0 
" style="stroke: #000000; stroke-width: 0.8"/>
      </defs>
      <g>
       <use xlink:href="#m1fc2a0c2e5" x="101.232656" y="332.623821" style="stroke: #000000; stroke-width: 0.8"/>
      </g>
     </g>
     <g id="text_9">
      <!-- −0.4 -->
      <g transform="translate(52.951875 339.082493) scale(0.17 -0.17)">
       <defs>
        <path id="DejaVuSans-2212" d="M 678 2272 
L 4684 2272 
L 4684 1741 
L 678 1741 
L 678 2272 
z
" transform="scale(0.015625)"/>
        <path id="DejaVuSans-2e" d="M 684 794 
L 1344 794 
L 1344 0 
L 684 0 
L 684 794 
z
" transform="scale(0.015625)"/>
        <path id="DejaVuSans-34" d="M 2419 4116 
L 825 1625 
L 2419 1625 
L 2419 4116 
z
M 2253 4666 
L 3047 4666 
L 3047 1625 
L 3713 1625 
L 3713 1100 
L 3047 1100 
L 3047 0 
L 2419 0 
L 2419 1100 
L 313 1100 
L 313 1709 
L 2253 4666 
z
" transform="scale(0.015625)"/>
       </defs>
       <use xlink:href="#DejaVuSans-2212"/>
       <use xlink:href="#DejaVuSans-30" transform="translate(83.789062 0)"/>
       <use xlink:href="#DejaVuSans-2e" transform="translate(147.412109 0)"/>
       <use xlink:href="#DejaVuSans-34" transform="translate(179.199219 0)"/>
      </g>
     </g>
    </g>
    <g id="ytick_2">
     <g id="line2d_17">
      <path d="M 101.232656 258.389126 
L 826.264656 258.389126 
" clip-path="url(#pdbf476090e)" style="fill: none; stroke-dasharray: 1.85,0.8; stroke-dashoffset: 0; stroke: #b0b0b0; stroke-width: 0.5"/>
     </g>
     <g id="line2d_18">
      <g>
       <use xlink:href="#m1fc2a0c2e5" x="101.232656" y="258.389126" style="stroke: #000000; stroke-width: 0.8"/>
      </g>
     </g>
     <g id="text_10">
      <!-- −0.2 -->
      <g transform="translate(52.951875 264.847798) scale(0.17 -0.17)">
       <use xlink:href="#DejaVuSans-2212"/>
       <use xlink:href="#DejaVuSans-30" transform="translate(83.789062 0)"/>
       <use xlink:href="#DejaVuSans-2e" transform="translate(147.412109 0)"/>
       <use xlink:href="#DejaVuSans-32" transform="translate(179.199219 0)"/>
      </g>
     </g>
    </g>
    <g id="ytick_3">
     <g id="line2d_19">
      <path d="M 101.232656 184.154432 
L 826.264656 184.154432 
" clip-path="url(#pdbf476090e)" style="fill: none; stroke-dasharray: 1.85,0.8; stroke-dashoffset: 0; stroke: #b0b0b0; stroke-width: 0.5"/>
     </g>
     <g id="line2d_20">
      <g>
       <use xlink:href="#m1fc2a0c2e5" x="101.232656" y="184.154432" style="stroke: #000000; stroke-width: 0.8"/>
      </g>
     </g>
     <g id="text_11">
      <!-- 0.0 -->
      <g transform="translate(67.197344 190.613104) scale(0.17 -0.17)">
       <use xlink:href="#DejaVuSans-30"/>
       <use xlink:href="#DejaVuSans-2e" transform="translate(63.623047 0)"/>
       <use xlink:href="#DejaVuSans-30" transform="translate(95.410156 0)"/>
      </g>
     </g>
    </g>
    <g id="ytick_4">
     <g id="line2d_21">
      <path d="M 101.232656 109.919737 
L 826.264656 109.919737 
" clip-path="url(#pdbf476090e)" style="fill: none; stroke-dasharray: 1.85,0.8; stroke-dashoffset: 0; stroke: #b0b0b0; stroke-width: 0.5"/>
     </g>
     <g id="line2d_22">
      <g>
       <use xlink:href="#m1fc2a0c2e5" x="101.232656" y="109.919737" style="stroke: #000000; stroke-width: 0.8"/>
      </g>
     </g>
     <g id="text_12">
      <!-- 0.2 -->
      <g transform="translate(67.197344 116.378409) scale(0.17 -0.17)">
       <use xlink:href="#DejaVuSans-30"/>
       <use xlink:href="#DejaVuSans-2e" transform="translate(63.623047 0)"/>
       <use xlink:href="#DejaVuSans-32" transform="translate(95.410156 0)"/>
      </g>
     </g>
    </g>
    <g id="ytick_5">
     <g id="line2d_23">
      <path d="M 101.232656 35.685043 
L 826.264656 35.685043 
" clip-path="url(#pdbf476090e)" style="fill: none; stroke-dasharray: 1.85,0.8; stroke-dashoffset: 0; stroke: #b0b0b0; stroke-width: 0.5"/>
     </g>
     <g id="line2d_24">
      <g>
       <use xlink:href="#m1fc2a0c2e5" x="101.232656" y="35.685043" style="stroke: #000000; stroke-width: 0.8"/>
      </g>
     </g>
     <g id="text_13">
      <!-- 0.4 -->
      <g transform="translate(67.197344 42.143715) scale(0.17 -0.17)">
       <use xlink:href="#DejaVuSans-30"/>
       <use xlink:href="#DejaVuSans-2e" transform="translate(63.623047 0)"/>
       <use xlink:href="#DejaVuSans-34" transform="translate(95.410156 0)"/>
      </g>
     </g>
    </g>
    <g id="text_14">
     <!-- $\Delta$ Metric -->
     <g transform="translate(22.396875 225.354432) rotate(-90) scale(0.2 -0.2)">
      <defs>
       <path id="DejaVuSans-394" d="M 2188 4044 
L 906 525 
L 3472 525 
L 2188 4044 
z
M 50 0 
L 1831 4666 
L 2547 4666 
L 4325 0 
L 50 0 
z
" transform="scale(0.015625)"/>
       <path id="DejaVuSans-20" transform="scale(0.015625)"/>
       <path id="DejaVuSans-4d" d="M 628 4666 
L 1569 4666 
L 2759 1491 
L 3956 4666 
L 4897 4666 
L 4897 0 
L 4281 0 
L 4281 4097 
L 3078 897 
L 2444 897 
L 1241 4097 
L 1241 0 
L 628 0 
L 628 4666 
z
" transform="scale(0.015625)"/>
       <path id="DejaVuSans-72" d="M 2631 2963 
Q 2534 3019 2420 3045 
Q 2306 3072 2169 3072 
Q 1681 3072 1420 2755 
Q 1159 2438 1159 1844 
L 1159 0 
L 581 0 
L 581 3500 
L 1159 3500 
L 1159 2956 
Q 1341 3275 1631 3429 
Q 1922 3584 2338 3584 
Q 2397 3584 2469 3576 
Q 2541 3569 2628 3553 
L 2631 2963 
z
" transform="scale(0.015625)"/>
       <path id="DejaVuSans-69" d="M 603 3500 
L 1178 3500 
L 1178 0 
L 603 0 
L 603 3500 
z
M 603 4863 
L 1178 4863 
L 1178 4134 
L 603 4134 
L 603 4863 
z
" transform="scale(0.015625)"/>
       <path id="DejaVuSans-63" d="M 3122 3366 
L 3122 2828 
Q 2878 2963 2633 3030 
Q 2388 3097 2138 3097 
Q 1578 3097 1268 2742 
Q 959 2388 959 1747 
Q 959 1106 1268 751 
Q 1578 397 2138 397 
Q 2388 397 2633 464 
Q 2878 531 3122 666 
L 3122 134 
Q 2881 22 2623 -34 
Q 2366 -91 2075 -91 
Q 1284 -91 818 406 
Q 353 903 353 1747 
Q 353 2603 823 3093 
Q 1294 3584 2113 3584 
Q 2378 3584 2631 3529 
Q 2884 3475 3122 3366 
z
" transform="scale(0.015625)"/>
      </defs>
      <use xlink:href="#DejaVuSans-394" transform="translate(0 0.015625)"/>
      <use xlink:href="#DejaVuSans-20" transform="translate(68.408203 0.015625)"/>
      <use xlink:href="#DejaVuSans-4d" transform="translate(100.195312 0.015625)"/>
      <use xlink:href="#DejaVuSans-65" transform="translate(186.474609 0.015625)"/>
      <use xlink:href="#DejaVuSans-74" transform="translate(247.998047 0.015625)"/>
      <use xlink:href="#DejaVuSans-72" transform="translate(287.207031 0.015625)"/>
      <use xlink:href="#DejaVuSans-69" transform="translate(328.320312 0.015625)"/>
      <use xlink:href="#DejaVuSans-63" transform="translate(356.103516 0.015625)"/>
     </g>
     <!-- (distilled - trained from scratch) -->
     <g transform="translate(44.7925 343.115369) rotate(-90) scale(0.2 -0.2)">
      <defs>
       <path id="DejaVuSans-28" d="M 1984 4856 
Q 1566 4138 1362 3434 
Q 1159 2731 1159 2009 
Q 1159 1288 1364 580 
Q 1569 -128 1984 -844 
L 1484 -844 
Q 1016 -109 783 600 
Q 550 1309 550 2009 
Q 550 2706 781 3412 
Q 1013 4119 1484 4856 
L 1984 4856 
z
" transform="scale(0.015625)"/>
       <path id="DejaVuSans-64" d="M 2906 2969 
L 2906 4863 
L 3481 4863 
L 3481 0 
L 2906 0 
L 2906 525 
Q 2725 213 2448 61 
Q 2172 -91 1784 -91 
Q 1150 -91 751 415 
Q 353 922 353 1747 
Q 353 2572 751 3078 
Q 1150 3584 1784 3584 
Q 2172 3584 2448 3432 
Q 2725 3281 2906 2969 
z
M 947 1747 
Q 947 1113 1208 752 
Q 1469 391 1925 391 
Q 2381 391 2643 752 
Q 2906 1113 2906 1747 
Q 2906 2381 2643 2742 
Q 2381 3103 1925 3103 
Q 1469 3103 1208 2742 
Q 947 2381 947 1747 
z
" transform="scale(0.015625)"/>
       <path id="DejaVuSans-6c" d="M 603 4863 
L 1178 4863 
L 1178 0 
L 603 0 
L 603 4863 
z
" transform="scale(0.015625)"/>
       <path id="DejaVuSans-2d" d="M 313 2009 
L 1997 2009 
L 1997 1497 
L 313 1497 
L 313 2009 
z
" transform="scale(0.015625)"/>
       <path id="DejaVuSans-6e" d="M 3513 2113 
L 3513 0 
L 2938 0 
L 2938 2094 
Q 2938 2591 2744 2837 
Q 2550 3084 2163 3084 
Q 1697 3084 1428 2787 
Q 1159 2491 1159 1978 
L 1159 0 
L 581 0 
L 581 3500 
L 1159 3500 
L 1159 2956 
Q 1366 3272 1645 3428 
Q 1925 3584 2291 3584 
Q 2894 3584 3203 3211 
Q 3513 2838 3513 2113 
z
" transform="scale(0.015625)"/>
       <path id="DejaVuSans-6f" d="M 1959 3097 
Q 1497 3097 1228 2736 
Q 959 2375 959 1747 
Q 959 1119 1226 758 
Q 1494 397 1959 397 
Q 2419 397 2687 759 
Q 2956 1122 2956 1747 
Q 2956 2369 2687 2733 
Q 2419 3097 1959 3097 
z
M 1959 3584 
Q 2709 3584 3137 3096 
Q 3566 2609 3566 1747 
Q 3566 888 3137 398 
Q 2709 -91 1959 -91 
Q 1206 -91 779 398 
Q 353 888 353 1747 
Q 353 2609 779 3096 
Q 1206 3584 1959 3584 
z
" transform="scale(0.015625)"/>
       <path id="DejaVuSans-6d" d="M 3328 2828 
Q 3544 3216 3844 3400 
Q 4144 3584 4550 3584 
Q 5097 3584 5394 3201 
Q 5691 2819 5691 2113 
L 5691 0 
L 5113 0 
L 5113 2094 
Q 5113 2597 4934 2840 
Q 4756 3084 4391 3084 
Q 3944 3084 3684 2787 
Q 3425 2491 3425 1978 
L 3425 0 
L 2847 0 
L 2847 2094 
Q 2847 2600 2669 2842 
Q 2491 3084 2119 3084 
Q 1678 3084 1418 2786 
Q 1159 2488 1159 1978 
L 1159 0 
L 581 0 
L 581 3500 
L 1159 3500 
L 1159 2956 
Q 1356 3278 1631 3431 
Q 1906 3584 2284 3584 
Q 2666 3584 2933 3390 
Q 3200 3197 3328 2828 
z
" transform="scale(0.015625)"/>
       <path id="DejaVuSans-68" d="M 3513 2113 
L 3513 0 
L 2938 0 
L 2938 2094 
Q 2938 2591 2744 2837 
Q 2550 3084 2163 3084 
Q 1697 3084 1428 2787 
Q 1159 2491 1159 1978 
L 1159 0 
L 581 0 
L 581 4863 
L 1159 4863 
L 1159 2956 
Q 1366 3272 1645 3428 
Q 1925 3584 2291 3584 
Q 2894 3584 3203 3211 
Q 3513 2838 3513 2113 
z
" transform="scale(0.015625)"/>
       <path id="DejaVuSans-29" d="M 513 4856 
L 1013 4856 
Q 1481 4119 1714 3412 
Q 1947 2706 1947 2009 
Q 1947 1309 1714 600 
Q 1481 -109 1013 -844 
L 513 -844 
Q 928 -128 1133 580 
Q 1338 1288 1338 2009 
Q 1338 2731 1133 3434 
Q 928 4138 513 4856 
z
" transform="scale(0.015625)"/>
      </defs>
      <use xlink:href="#DejaVuSans-28"/>
      <use xlink:href="#DejaVuSans-64" transform="translate(39.013672 0)"/>
      <use xlink:href="#DejaVuSans-69" transform="translate(102.490234 0)"/>
      <use xlink:href="#DejaVuSans-73" transform="translate(130.273438 0)"/>
      <use xlink:href="#DejaVuSans-74" transform="translate(182.373047 0)"/>
      <use xlink:href="#DejaVuSans-69" transform="translate(221.582031 0)"/>
      <use xlink:href="#DejaVuSans-6c" transform="translate(249.365234 0)"/>
      <use xlink:href="#DejaVuSans-6c" transform="translate(277.148438 0)"/>
      <use xlink:href="#DejaVuSans-65" transform="translate(304.931641 0)"/>
      <use xlink:href="#DejaVuSans-64" transform="translate(366.455078 0)"/>
      <use xlink:href="#DejaVuSans-20" transform="translate(429.931641 0)"/>
      <use xlink:href="#DejaVuSans-2d" transform="translate(461.71875 0)"/>
      <use xlink:href="#DejaVuSans-20" transform="translate(497.802734 0)"/>
      <use xlink:href="#DejaVuSans-74" transform="translate(529.589844 0)"/>
      <use xlink:href="#DejaVuSans-72" transform="translate(568.798828 0)"/>
      <use xlink:href="#DejaVuSans-61" transform="translate(609.912109 0)"/>
      <use xlink:href="#DejaVuSans-69" transform="translate(671.191406 0)"/>
      <use xlink:href="#DejaVuSans-6e" transform="translate(698.974609 0)"/>
      <use xlink:href="#DejaVuSans-65" transform="translate(762.353516 0)"/>
      <use xlink:href="#DejaVuSans-64" transform="translate(823.876953 0)"/>
      <use xlink:href="#DejaVuSans-20" transform="translate(887.353516 0)"/>
      <use xlink:href="#DejaVuSans-66" transform="translate(919.140625 0)"/>
      <use xlink:href="#DejaVuSans-72" transform="translate(954.345703 0)"/>
      <use xlink:href="#DejaVuSans-6f" transform="translate(993.208984 0)"/>
      <use xlink:href="#DejaVuSans-6d" transform="translate(1054.390625 0)"/>
      <use xlink:href="#DejaVuSans-20" transform="translate(1151.802734 0)"/>
      <use xlink:href="#DejaVuSans-73" transform="translate(1183.589844 0)"/>
      <use xlink:href="#DejaVuSans-63" transform="translate(1235.689453 0)"/>
      <use xlink:href="#DejaVuSans-72" transform="translate(1290.669922 0)"/>
      <use xlink:href="#DejaVuSans-61" transform="translate(1331.783203 0)"/>
      <use xlink:href="#DejaVuSans-74" transform="translate(1393.0625 0)"/>
      <use xlink:href="#DejaVuSans-63" transform="translate(1432.271484 0)"/>
      <use xlink:href="#DejaVuSans-68" transform="translate(1487.251953 0)"/>
      <use xlink:href="#DejaVuSans-29" transform="translate(1550.630859 0)"/>
     </g>
    </g>
   </g>
   <g id="LineCollection_1">
    <path d="M 144.029684 216.267213 
L 144.029684 181.737943 
" clip-path="url(#pdbf476090e)" style="fill: none; stroke: #000000; stroke-width: 1.4"/>
   </g>
   <g id="line2d_25">
    <defs>
     <path id="mec216b9f5b" d="M 4 0 
L -4 -0 
" style="stroke: #000000; stroke-width: 1.4"/>
    </defs>
    <g clip-path="url(#pdbf476090e)">
     <use xlink:href="#mec216b9f5b" x="144.029684" y="216.267213" style="fill: #1f77b4; stroke: #000000; stroke-width: 1.4"/>
    </g>
   </g>
   <g id="line2d_26">
    <g clip-path="url(#pdbf476090e)">
     <use xlink:href="#mec216b9f5b" x="144.029684" y="181.737943" style="fill: #1f77b4; stroke: #000000; stroke-width: 1.4"/>
    </g>
   </g>
   <g id="LineCollection_2">
    <path d="M 179.274295 236.50194 
L 179.274295 181.707737 
" clip-path="url(#pdbf476090e)" style="fill: none; stroke: #000000; stroke-width: 1.4"/>
   </g>
   <g id="line2d_27">
    <g clip-path="url(#pdbf476090e)">
     <use xlink:href="#mec216b9f5b" x="179.274295" y="236.50194" style="fill: #1f77b4; stroke: #000000; stroke-width: 1.4"/>
    </g>
   </g>
   <g id="line2d_28">
    <g clip-path="url(#pdbf476090e)">
     <use xlink:href="#mec216b9f5b" x="179.274295" y="181.707737" style="fill: #1f77b4; stroke: #000000; stroke-width: 1.4"/>
    </g>
   </g>
   <g id="LineCollection_3">
    <path d="M 244.728573 217.886936 
L 244.728573 187.297806 
" clip-path="url(#pdbf476090e)" style="fill: none; stroke: #000000; stroke-width: 1.4"/>
   </g>
   <g id="line2d_29">
    <g clip-path="url(#pdbf476090e)">
     <use xlink:href="#mec216b9f5b" x="244.728573" y="217.886936" style="fill: #1f77b4; stroke: #000000; stroke-width: 1.4"/>
    </g>
   </g>
   <g id="line2d_30">
    <g clip-path="url(#pdbf476090e)">
     <use xlink:href="#mec216b9f5b" x="244.728573" y="187.297806" style="fill: #1f77b4; stroke: #000000; stroke-width: 1.4"/>
    </g>
   </g>
   <g id="LineCollection_4">
    <path d="M 279.973184 202.254701 
L 279.973184 186.474388 
" clip-path="url(#pdbf476090e)" style="fill: none; stroke: #000000; stroke-width: 1.4"/>
   </g>
   <g id="line2d_31">
    <g clip-path="url(#pdbf476090e)">
     <use xlink:href="#mec216b9f5b" x="279.973184" y="202.254701" style="fill: #1f77b4; stroke: #000000; stroke-width: 1.4"/>
    </g>
   </g>
   <g id="line2d_32">
    <g clip-path="url(#pdbf476090e)">
     <use xlink:href="#mec216b9f5b" x="279.973184" y="186.474388" style="fill: #1f77b4; stroke: #000000; stroke-width: 1.4"/>
    </g>
   </g>
   <g id="LineCollection_5">
    <path d="M 345.427462 202.59846 
L 345.427462 180.186889 
" clip-path="url(#pdbf476090e)" style="fill: none; stroke: #000000; stroke-width: 1.4"/>
   </g>
   <g id="line2d_33">
    <g clip-path="url(#pdbf476090e)">
     <use xlink:href="#mec216b9f5b" x="345.427462" y="202.59846" style="fill: #1f77b4; stroke: #000000; stroke-width: 1.4"/>
    </g>
   </g>
   <g id="line2d_34">
    <g clip-path="url(#pdbf476090e)">
     <use xlink:href="#mec216b9f5b" x="345.427462" y="180.186889" style="fill: #1f77b4; stroke: #000000; stroke-width: 1.4"/>
    </g>
   </g>
   <g id="LineCollection_6">
    <path d="M 380.672073 229.167692 
L 380.672073 175.885042 
" clip-path="url(#pdbf476090e)" style="fill: none; stroke: #000000; stroke-width: 1.4"/>
   </g>
   <g id="line2d_35">
    <g clip-path="url(#pdbf476090e)">
     <use xlink:href="#mec216b9f5b" x="380.672073" y="229.167692" style="fill: #1f77b4; stroke: #000000; stroke-width: 1.4"/>
    </g>
   </g>
   <g id="line2d_36">
    <g clip-path="url(#pdbf476090e)">
     <use xlink:href="#mec216b9f5b" x="380.672073" y="175.885042" style="fill: #1f77b4; stroke: #000000; stroke-width: 1.4"/>
    </g>
   </g>
   <g id="LineCollection_7">
    <path d="M 446.126351 185.708126 
L 446.126351 183.227931 
" clip-path="url(#pdbf476090e)" style="fill: none; stroke: #000000; stroke-width: 1.4"/>
   </g>
   <g id="line2d_37">
    <g clip-path="url(#pdbf476090e)">
     <use xlink:href="#mec216b9f5b" x="446.126351" y="185.708126" style="fill: #1f77b4; stroke: #000000; stroke-width: 1.4"/>
    </g>
   </g>
   <g id="line2d_38">
    <g clip-path="url(#pdbf476090e)">
     <use xlink:href="#mec216b9f5b" x="446.126351" y="183.227931" style="fill: #1f77b4; stroke: #000000; stroke-width: 1.4"/>
    </g>
   </g>
   <g id="LineCollection_8">
    <path d="M 481.370962 189.08483 
L 481.370962 180.239074 
" clip-path="url(#pdbf476090e)" style="fill: none; stroke: #000000; stroke-width: 1.4"/>
   </g>
   <g id="line2d_39">
    <g clip-path="url(#pdbf476090e)">
     <use xlink:href="#mec216b9f5b" x="481.370962" y="189.08483" style="fill: #1f77b4; stroke: #000000; stroke-width: 1.4"/>
    </g>
   </g>
   <g id="line2d_40">
    <g clip-path="url(#pdbf476090e)">
     <use xlink:href="#mec216b9f5b" x="481.370962" y="180.239074" style="fill: #1f77b4; stroke: #000000; stroke-width: 1.4"/>
    </g>
   </g>
   <g id="LineCollection_9">
    <path d="M 546.82524 238.377068 
L 546.82524 185.063789 
" clip-path="url(#pdbf476090e)" style="fill: none; stroke: #000000; stroke-width: 1.4"/>
   </g>
   <g id="line2d_41">
    <g clip-path="url(#pdbf476090e)">
     <use xlink:href="#mec216b9f5b" x="546.82524" y="238.377068" style="fill: #1f77b4; stroke: #000000; stroke-width: 1.4"/>
    </g>
   </g>
   <g id="line2d_42">
    <g clip-path="url(#pdbf476090e)">
     <use xlink:href="#mec216b9f5b" x="546.82524" y="185.063789" style="fill: #1f77b4; stroke: #000000; stroke-width: 1.4"/>
    </g>
   </g>
   <g id="LineCollection_10">
    <path d="M 582.069851 238.844164 
L 582.069851 194.596152 
" clip-path="url(#pdbf476090e)" style="fill: none; stroke: #000000; stroke-width: 1.4"/>
   </g>
   <g id="line2d_43">
    <g clip-path="url(#pdbf476090e)">
     <use xlink:href="#mec216b9f5b" x="582.069851" y="238.844164" style="fill: #1f77b4; stroke: #000000; stroke-width: 1.4"/>
    </g>
   </g>
   <g id="line2d_44">
    <g clip-path="url(#pdbf476090e)">
     <use xlink:href="#mec216b9f5b" x="582.069851" y="194.596152" style="fill: #1f77b4; stroke: #000000; stroke-width: 1.4"/>
    </g>
   </g>
   <g id="LineCollection_11">
    <path d="M 647.524128 198.82272 
L 647.524128 179.843806 
" clip-path="url(#pdbf476090e)" style="fill: none; stroke: #000000; stroke-width: 1.4"/>
   </g>
   <g id="line2d_45">
    <g clip-path="url(#pdbf476090e)">
     <use xlink:href="#mec216b9f5b" x="647.524128" y="198.82272" style="fill: #1f77b4; stroke: #000000; stroke-width: 1.4"/>
    </g>
   </g>
   <g id="line2d_46">
    <g clip-path="url(#pdbf476090e)">
     <use xlink:href="#mec216b9f5b" x="647.524128" y="179.843806" style="fill: #1f77b4; stroke: #000000; stroke-width: 1.4"/>
    </g>
   </g>
   <g id="LineCollection_12">
    <path d="M 682.76874 209.645516 
L 682.76874 191.668796 
" clip-path="url(#pdbf476090e)" style="fill: none; stroke: #000000; stroke-width: 1.4"/>
   </g>
   <g id="line2d_47">
    <g clip-path="url(#pdbf476090e)">
     <use xlink:href="#mec216b9f5b" x="682.76874" y="209.645516" style="fill: #1f77b4; stroke: #000000; stroke-width: 1.4"/>
    </g>
   </g>
   <g id="line2d_48">
    <g clip-path="url(#pdbf476090e)">
     <use xlink:href="#mec216b9f5b" x="682.76874" y="191.668796" style="fill: #1f77b4; stroke: #000000; stroke-width: 1.4"/>
    </g>
   </g>
   <g id="LineCollection_13">
    <path d="M 748.223017 199.404666 
L 748.223017 183.867284 
" clip-path="url(#pdbf476090e)" style="fill: none; stroke: #000000; stroke-width: 1.4"/>
   </g>
   <g id="line2d_49">
    <g clip-path="url(#pdbf476090e)">
     <use xlink:href="#mec216b9f5b" x="748.223017" y="199.404666" style="fill: #1f77b4; stroke: #000000; stroke-width: 1.4"/>
    </g>
   </g>
   <g id="line2d_50">
    <g clip-path="url(#pdbf476090e)">
     <use xlink:href="#mec216b9f5b" x="748.223017" y="183.867284" style="fill: #1f77b4; stroke: #000000; stroke-width: 1.4"/>
    </g>
   </g>
   <g id="LineCollection_14">
    <path d="M 783.467628 217.410454 
L 783.467628 185.294825 
" clip-path="url(#pdbf476090e)" style="fill: none; stroke: #000000; stroke-width: 1.4"/>
   </g>
   <g id="line2d_51">
    <g clip-path="url(#pdbf476090e)">
     <use xlink:href="#mec216b9f5b" x="783.467628" y="217.410454" style="fill: #1f77b4; stroke: #000000; stroke-width: 1.4"/>
    </g>
   </g>
   <g id="line2d_52">
    <g clip-path="url(#pdbf476090e)">
     <use xlink:href="#mec216b9f5b" x="783.467628" y="185.294825" style="fill: #1f77b4; stroke: #000000; stroke-width: 1.4"/>
    </g>
   </g>
   <g id="line2d_53">
    <path d="M 101.232656 184.154432 
L 826.264656 184.154432 
" clip-path="url(#pdbf476090e)" style="fill: none; stroke: #000000; stroke-width: 0.8; stroke-linecap: square"/>
   </g>
   <g id="patch_17">
    <path d="M 101.232656 361.108864 
L 101.232656 7.2 
" style="fill: none; stroke: #000000; stroke-width: 0.8; stroke-linejoin: miter; stroke-linecap: square"/>
   </g>
   <g id="patch_18">
    <path d="M 101.232656 361.108864 
L 826.264656 361.108864 
" style="fill: none; stroke: #000000; stroke-width: 0.8; stroke-linejoin: miter; stroke-linecap: square"/>
   </g>
   <g id="legend_1">
    <g id="patch_19">
     <path d="M 682.349031 70.705625 
L 814.364656 70.705625 
Q 817.764656 70.705625 817.764656 67.305625 
L 817.764656 19.1 
Q 817.764656 15.7 814.364656 15.7 
L 682.349031 15.7 
Q 678.949031 15.7 678.949031 19.1 
L 678.949031 67.305625 
Q 678.949031 70.705625 682.349031 70.705625 
z
" style="fill: #ffffff; opacity: 0.8; stroke: #cccccc; stroke-linejoin: miter"/>
    </g>
    <g id="patch_20">
     <path d="M 685.749031 35.417344 
L 719.749031 35.417344 
L 719.749031 23.517344 
L 685.749031 23.517344 
z
" style="fill: #1f77b4; opacity: 0.85; stroke: #1f77b4; stroke-linejoin: miter"/>
    </g>
    <g id="text_15">
     <!-- Accuracy -->
     <g transform="translate(733.349031 35.417344) scale(0.17 -0.17)">
      <defs>
       <path id="DejaVuSans-41" d="M 2188 4044 
L 1331 1722 
L 3047 1722 
L 2188 4044 
z
M 1831 4666 
L 2547 4666 
L 4325 0 
L 3669 0 
L 3244 1197 
L 1141 1197 
L 716 0 
L 50 0 
L 1831 4666 
z
" transform="scale(0.015625)"/>
       <path id="DejaVuSans-75" d="M 544 1381 
L 544 3500 
L 1119 3500 
L 1119 1403 
Q 1119 906 1312 657 
Q 1506 409 1894 409 
Q 2359 409 2629 706 
Q 2900 1003 2900 1516 
L 2900 3500 
L 3475 3500 
L 3475 0 
L 2900 0 
L 2900 538 
Q 2691 219 2414 64 
Q 2138 -91 1772 -91 
Q 1169 -91 856 284 
Q 544 659 544 1381 
z
M 1991 3584 
L 1991 3584 
z
" transform="scale(0.015625)"/>
       <path id="DejaVuSans-79" d="M 2059 -325 
Q 1816 -950 1584 -1140 
Q 1353 -1331 966 -1331 
L 506 -1331 
L 506 -850 
L 844 -850 
Q 1081 -850 1212 -737 
Q 1344 -625 1503 -206 
L 1606 56 
L 191 3500 
L 800 3500 
L 1894 763 
L 2988 3500 
L 3597 3500 
L 2059 -325 
z
" transform="scale(0.015625)"/>
      </defs>
      <use xlink:href="#DejaVuSans-41"/>
      <use xlink:href="#DejaVuSans-63" transform="translate(66.658203 0)"/>
      <use xlink:href="#DejaVuSans-63" transform="translate(121.638672 0)"/>
      <use xlink:href="#DejaVuSans-75" transform="translate(176.619141 0)"/>
      <use xlink:href="#DejaVuSans-72" transform="translate(239.998047 0)"/>
      <use xlink:href="#DejaVuSans-61" transform="translate(281.111328 0)"/>
      <use xlink:href="#DejaVuSans-63" transform="translate(342.390625 0)"/>
      <use xlink:href="#DejaVuSans-79" transform="translate(397.371094 0)"/>
     </g>
    </g>
    <g id="patch_21">
     <path d="M 685.749031 60.370156 
L 719.749031 60.370156 
L 719.749031 48.470156 
L 685.749031 48.470156 
z
" style="fill: #ff7f0e; opacity: 0.85; stroke: #ff7f0e; stroke-linejoin: miter"/>
    </g>
    <g id="text_16">
     <!-- F1 -->
     <g transform="translate(733.349031 60.370156) scale(0.17 -0.17)">
      <defs>
       <path id="DejaVuSans-46" d="M 628 4666 
L 3309 4666 
L 3309 4134 
L 1259 4134 
L 1259 2759 
L 3109 2759 
L 3109 2228 
L 1259 2228 
L 1259 0 
L 628 0 
L 628 4666 
z
" transform="scale(0.015625)"/>
      </defs>
      <use xlink:href="#DejaVuSans-46"/>
      <use xlink:href="#DejaVuSans-31" transform="translate(57.519531 0)"/>
     </g>
    </g>
   </g>
  </g>
 </g>
 <defs>
  <clipPath id="pdbf476090e">
   <rect x="101.232656" y="7.2" width="725.032" height="353.908864"/>
  </clipPath>
 </defs>
</svg>
