<?xml version="1.0" encoding="utf-8" standalone="no"?>
<!DOCTYPE svg PUBLIC "-//W3C//DTD SVG 1.1//EN"
  "http://www.w3.org/Graphics/SVG/1.1/DTD/svg11.dtd">
<svg xmlns:xlink="http://www.w3.org/1999/xlink" width="833.420906pt" height="474.594677pt" viewBox="0 0 833.420906 474.594677" xmlns="http://www.w3.org/2000/svg" version="1.1">
 <metadata>
  <rdf:RDF xmlns:dc="http://purl.org/dc/elements/1.1/" xmlns:cc="http://creativecommons.org/ns#" xmlns:rdf="http://www.w3.org/1999/02/22-rdf-syntax-ns#">
   <cc:Work>
    <dc:type rdf:resource="http://purl.org/dc/dcmitype/StillImage"/>
    <dc:date>2026-03-19T21:08:24.561523</dc:date>
    <dc:format>image/svg+xml</dc:format>
    <dc:creator>
     <cc:Agent>
      <dc:title>Matplotlib v3.10.7, https://matplotlib.org/</dc:title>
     </cc:Agent>
    </dc:creator>
   </cc:Work>
  </rdf:RDF>
 </metadata>
 <defs>
  <style type="text/css">*{stroke-linejoin: round; stroke-linecap: butt}</style>
 </defs>
 <g id="figure_1">
  <g id="patch_1">
   <path d="M 0 474.594677 
L 833.420906 474.594677 
L 833.420906 0 
L 0 0 
z
" style="fill: #ffffff"/>
  </g>
  <g id="axes_1">
   <g id="patch_2">
    <path d="M 112.048906 361.087536 
L 826.220906 361.087536 
L 826.220906 13.658672 
L 112.048906 13.658672 
z
" style="fill: #ffffff"/>
   </g>
   <g id="patch_3">
    <path d="M 164.009497 266.334209 
L 192.851059 266.334209 
L 192.851059 127.916072 
L 164.009497 127.916072 
z
" clip-path="url(#pec8d89f6ab)" style="fill: #1f77b4"/>
   </g>
   <g id="patch_4">
    <path d="M 196.055677 266.334209 
L 224.897238 266.334209 
L 224.897238 38.209268 
L 196.055677 38.209268 
z
" clip-path="url(#pec8d89f6ab)" style="fill: #ff7f0e"/>
   </g>
   <g id="patch_5">
    <path d="M 255.57001 266.334209 
L 284.411572 266.334209 
L 284.411572 249.259274 
L 255.57001 249.259274 
z
" clip-path="url(#pec8d89f6ab)" style="fill: #1f77b4"/>
   </g>
   <g id="patch_6">
    <path d="M 287.61619 266.334209 
L 316.457751 266.334209 
L 316.457751 278.972132 
L 287.61619 278.972132 
z
" clip-path="url(#pec8d89f6ab)" style="fill: #ff7f0e"/>
   </g>
   <g id="patch_7">
    <path d="M 347.130523 266.334209 
L 375.972084 266.334209 
L 375.972084 180.007138 
L 347.130523 180.007138 
z
" clip-path="url(#pec8d89f6ab)" style="fill: #1f77b4"/>
   </g>
   <g id="patch_8">
    <path d="M 379.176702 266.334209 
L 408.018264 266.334209 
L 408.018264 137.762782 
L 379.176702 137.762782 
z
" clip-path="url(#pec8d89f6ab)" style="fill: #ff7f0e"/>
   </g>
   <g id="patch_9">
    <path d="M 438.691036 266.334209 
L 467.532597 266.334209 
L 467.532597 280.57551 
L 438.691036 280.57551 
z
" clip-path="url(#pec8d89f6ab)" style="fill: #1f77b4"/>
   </g>
   <g id="patch_10">
    <path d="M 470.737215 266.334209 
L 499.578777 266.334209 
L 499.578777 220.761451 
L 470.737215 220.761451 
z
" clip-path="url(#pec8d89f6ab)" style="fill: #ff7f0e"/>
   </g>
   <g id="patch_11">
    <path d="M 530.251549 266.334209 
L 559.09311 266.334209 
L 559.09311 260.030211 
L 530.251549 260.030211 
z
" clip-path="url(#pec8d89f6ab)" style="fill: #1f77b4"/>
   </g>
   <g id="patch_12">
    <path d="M 562.297728 266.334209 
L 591.13929 266.334209 
L 591.13929 287.857624 
L 562.297728 287.857624 
z
" clip-path="url(#pec8d89f6ab)" style="fill: #ff7f0e"/>
   </g>
   <g id="patch_13">
    <path d="M 621.812061 266.334209 
L 650.653623 266.334209 
L 650.653623 271.584543 
L 621.812061 271.584543 
z
" clip-path="url(#pec8d89f6ab)" style="fill: #1f77b4"/>
   </g>
   <g id="patch_14">
    <path d="M 653.858241 266.334209 
L 682.699802 266.334209 
L 682.699802 278.950659 
L 653.858241 278.950659 
z
" clip-path="url(#pec8d89f6ab)" style="fill: #ff7f0e"/>
   </g>
   <g id="patch_15">
    <path d="M 713.372574 266.334209 
L 742.214136 266.334209 
L 742.214136 308.581765 
L 713.372574 308.581765 
z
" clip-path="url(#pec8d89f6ab)" style="fill: #1f77b4"/>
   </g>
   <g id="patch_16">
    <path d="M 745.418754 266.334209 
L 774.260315 266.334209 
L 774.260315 299.316342 
L 745.418754 299.316342 
z
" clip-path="url(#pec8d89f6ab)" style="fill: #ff7f0e"/>
   </g>
   <g id="matplotlib.axis_1">
    <g id="xtick_1">
     <g id="line2d_1">
      <defs>
       <path id="mcec6c1dbf9" d="M 0 0 
L 0 3.5 
" style="stroke: #000000; stroke-width: 0.8"/>
      </defs>
      <g>
       <use xlink:href="#mcec6c1dbf9" x="194.453368" y="361.087536" style="stroke: #000000; stroke-width: 0.8"/>
      </g>
     </g>
     <g id="text_1">
      <!-- BPI12 -->
      <g transform="translate(157.615204 411.559687) rotate(-45) scale(0.17 -0.17)">
       <defs>
        <path id="DejaVuSans-42" d="M 1259 2228 
L 1259 519 
L 2272 519 
Q 2781 519 3026 730 
Q 3272 941 3272 1375 
Q 3272 1813 3026 2020 
Q 2781 2228 2272 2228 
L 1259 2228 
z
M 1259 4147 
L 1259 2741 
L 2194 2741 
Q 2656 2741 2882 2914 
Q 3109 3088 3109 3444 
Q 3109 3797 2882 3972 
Q 2656 4147 2194 4147 
L 1259 4147 
z
M 628 4666 
L 2241 4666 
Q 2963 4666 3353 4366 
Q 3744 4066 3744 3513 
Q 3744 3084 3544 2831 
Q 3344 2578 2956 2516 
Q 3422 2416 3680 2098 
Q 3938 1781 3938 1306 
Q 3938 681 3513 340 
Q 3088 0 2303 0 
L 628 0 
L 628 4666 
z
" transform="scale(0.015625)"/>
        <path id="DejaVuSans-50" d="M 1259 4147 
L 1259 2394 
L 2053 2394 
Q 2494 2394 2734 2622 
Q 2975 2850 2975 3272 
Q 2975 3691 2734 3919 
Q 2494 4147 2053 4147 
L 1259 4147 
z
M 628 4666 
L 2053 4666 
Q 2838 4666 3239 4311 
Q 3641 3956 3641 3272 
Q 3641 2581 3239 2228 
Q 2838 1875 2053 1875 
L 1259 1875 
L 1259 0 
L 628 0 
L 628 4666 
z
" transform="scale(0.015625)"/>
        <path id="DejaVuSans-49" d="M 628 4666 
L 1259 4666 
L 1259 0 
L 628 0 
L 628 4666 
z
" transform="scale(0.015625)"/>
        <path id="DejaVuSans-31" d="M 794 531 
L 1825 531 
L 1825 4091 
L 703 3866 
L 703 4441 
L 1819 4666 
L 2450 4666 
L 2450 531 
L 3481 531 
L 3481 0 
L 794 0 
L 794 531 
z
" transform="scale(0.015625)"/>
        <path id="DejaVuSans-32" d="M 1228 531 
L 3431 531 
L 3431 0 
L 469 0 
L 469 531 
Q 828 903 1448 1529 
Q 2069 2156 2228 2338 
Q 2531 2678 2651 2914 
Q 2772 3150 2772 3378 
Q 2772 3750 2511 3984 
Q 2250 4219 1831 4219 
Q 1534 4219 1204 4116 
Q 875 4013 500 3803 
L 500 4441 
Q 881 4594 1212 4672 
Q 1544 4750 1819 4750 
Q 2544 4750 2975 4387 
Q 3406 4025 3406 3419 
Q 3406 3131 3298 2873 
Q 3191 2616 2906 2266 
Q 2828 2175 2409 1742 
Q 1991 1309 1228 531 
z
" transform="scale(0.015625)"/>
       </defs>
       <use xlink:href="#DejaVuSans-42"/>
       <use xlink:href="#DejaVuSans-50" transform="translate(68.603516 0)"/>
       <use xlink:href="#DejaVuSans-49" transform="translate(128.90625 0)"/>
       <use xlink:href="#DejaVuSans-31" transform="translate(158.398438 0)"/>
       <use xlink:href="#DejaVuSans-32" transform="translate(222.021484 0)"/>
      </g>
     </g>
    </g>
    <g id="xtick_2">
     <g id="line2d_2">
      <g>
       <use xlink:href="#mcec6c1dbf9" x="286.013881" y="361.087536" style="stroke: #000000; stroke-width: 0.8"/>
      </g>
     </g>
     <g id="text_2">
      <!-- BPI15 -->
      <g transform="translate(249.175717 411.559687) rotate(-45) scale(0.17 -0.17)">
       <defs>
        <path id="DejaVuSans-35" d="M 691 4666 
L 3169 4666 
L 3169 4134 
L 1269 4134 
L 1269 2991 
Q 1406 3038 1543 3061 
Q 1681 3084 1819 3084 
Q 2600 3084 3056 2656 
Q 3513 2228 3513 1497 
Q 3513 744 3044 326 
Q 2575 -91 1722 -91 
Q 1428 -91 1123 -41 
Q 819 9 494 109 
L 494 744 
Q 775 591 1075 516 
Q 1375 441 1709 441 
Q 2250 441 2565 725 
Q 2881 1009 2881 1497 
Q 2881 1984 2565 2268 
Q 2250 2553 1709 2553 
Q 1456 2553 1204 2497 
Q 953 2441 691 2322 
L 691 4666 
z
" transform="scale(0.015625)"/>
       </defs>
       <use xlink:href="#DejaVuSans-42"/>
       <use xlink:href="#DejaVuSans-50" transform="translate(68.603516 0)"/>
       <use xlink:href="#DejaVuSans-49" transform="translate(128.90625 0)"/>
       <use xlink:href="#DejaVuSans-31" transform="translate(158.398438 0)"/>
       <use xlink:href="#DejaVuSans-35" transform="translate(222.021484 0)"/>
      </g>
     </g>
    </g>
    <g id="xtick_3">
     <g id="line2d_3">
      <g>
       <use xlink:href="#mcec6c1dbf9" x="377.574393" y="361.087536" style="stroke: #000000; stroke-width: 0.8"/>
      </g>
     </g>
     <g id="text_3">
      <!-- BPI17 -->
      <g transform="translate(340.736229 411.559687) rotate(-45) scale(0.17 -0.17)">
       <defs>
        <path id="DejaVuSans-37" d="M 525 4666 
L 3525 4666 
L 3525 4397 
L 1831 0 
L 1172 0 
L 2766 4134 
L 525 4134 
L 525 4666 
z
" transform="scale(0.015625)"/>
       </defs>
       <use xlink:href="#DejaVuSans-42"/>
       <use xlink:href="#DejaVuSans-50" transform="translate(68.603516 0)"/>
       <use xlink:href="#DejaVuSans-49" transform="translate(128.90625 0)"/>
       <use xlink:href="#DejaVuSans-31" transform="translate(158.398438 0)"/>
       <use xlink:href="#DejaVuSans-37" transform="translate(222.021484 0)"/>
      </g>
     </g>
    </g>
    <g id="xtick_4">
     <g id="line2d_4">
      <g>
       <use xlink:href="#mcec6c1dbf9" x="469.134906" y="361.087536" style="stroke: #000000; stroke-width: 0.8"/>
      </g>
     </g>
     <g id="text_4">
      <!-- BPI19 -->
      <g transform="translate(432.296742 411.559687) rotate(-45) scale(0.17 -0.17)">
       <defs>
        <path id="DejaVuSans-39" d="M 703 97 
L 703 672 
Q 941 559 1184 500 
Q 1428 441 1663 441 
Q 2288 441 2617 861 
Q 2947 1281 2994 2138 
Q 2813 1869 2534 1725 
Q 2256 1581 1919 1581 
Q 1219 1581 811 2004 
Q 403 2428 403 3163 
Q 403 3881 828 4315 
Q 1253 4750 1959 4750 
Q 2769 4750 3195 4129 
Q 3622 3509 3622 2328 
Q 3622 1225 3098 567 
Q 2575 -91 1691 -91 
Q 1453 -91 1209 -44 
Q 966 3 703 97 
z
M 1959 2075 
Q 2384 2075 2632 2365 
Q 2881 2656 2881 3163 
Q 2881 3666 2632 3958 
Q 2384 4250 1959 4250 
Q 1534 4250 1286 3958 
Q 1038 3666 1038 3163 
Q 1038 2656 1286 2365 
Q 1534 2075 1959 2075 
z
" transform="scale(0.015625)"/>
       </defs>
       <use xlink:href="#DejaVuSans-42"/>
       <use xlink:href="#DejaVuSans-50" transform="translate(68.603516 0)"/>
       <use xlink:href="#DejaVuSans-49" transform="translate(128.90625 0)"/>
       <use xlink:href="#DejaVuSans-31" transform="translate(158.398438 0)"/>
       <use xlink:href="#DejaVuSans-39" transform="translate(222.021484 0)"/>
      </g>
     </g>
    </g>
    <g id="xtick_5">
     <g id="line2d_5">
      <g>
       <use xlink:href="#mcec6c1dbf9" x="560.695419" y="361.087536" style="stroke: #000000; stroke-width: 0.8"/>
      </g>
     </g>
     <g id="text_5">
      <!-- BPI20_PTC -->
      <g transform="translate(495.234567 439.635804) rotate(-45) scale(0.17 -0.17)">
       <defs>
        <path id="DejaVuSans-30" d="M 2034 4250 
Q 1547 4250 1301 3770 
Q 1056 3291 1056 2328 
Q 1056 1369 1301 889 
Q 1547 409 2034 409 
Q 2525 409 2770 889 
Q 3016 1369 3016 2328 
Q 3016 3291 2770 3770 
Q 2525 4250 2034 4250 
z
M 2034 4750 
Q 2819 4750 3233 4129 
Q 3647 3509 3647 2328 
Q 3647 1150 3233 529 
Q 2819 -91 2034 -91 
Q 1250 -91 836 529 
Q 422 1150 422 2328 
Q 422 3509 836 4129 
Q 1250 4750 2034 4750 
z
" transform="scale(0.015625)"/>
        <path id="DejaVuSans-5f" d="M 3263 -1063 
L 3263 -1509 
L -63 -1509 
L -63 -1063 
L 3263 -1063 
z
" transform="scale(0.015625)"/>
        <path id="DejaVuSans-54" d="M -19 4666 
L 3928 4666 
L 3928 4134 
L 2272 4134 
L 2272 0 
L 1638 0 
L 1638 4134 
L -19 4134 
L -19 4666 
z
" transform="scale(0.015625)"/>
        <path id="DejaVuSans-43" d="M 4122 4306 
L 4122 3641 
Q 3803 3938 3442 4084 
Q 3081 4231 2675 4231 
Q 1875 4231 1450 3742 
Q 1025 3253 1025 2328 
Q 1025 1406 1450 917 
Q 1875 428 2675 428 
Q 3081 428 3442 575 
Q 3803 722 4122 1019 
L 4122 359 
Q 3791 134 3420 21 
Q 3050 -91 2638 -91 
Q 1578 -91 968 557 
Q 359 1206 359 2328 
Q 359 3453 968 4101 
Q 1578 4750 2638 4750 
Q 3056 4750 3426 4639 
Q 3797 4528 4122 4306 
z
" transform="scale(0.015625)"/>
       </defs>
       <use xlink:href="#DejaVuSans-42"/>
       <use xlink:href="#DejaVuSans-50" transform="translate(68.603516 0)"/>
       <use xlink:href="#DejaVuSans-49" transform="translate(128.90625 0)"/>
       <use xlink:href="#DejaVuSans-32" transform="translate(158.398438 0)"/>
       <use xlink:href="#DejaVuSans-30" transform="translate(222.021484 0)"/>
       <use xlink:href="#DejaVuSans-5f" transform="translate(285.644531 0)"/>
       <use xlink:href="#DejaVuSans-50" transform="translate(335.644531 0)"/>
       <use xlink:href="#DejaVuSans-54" transform="translate(395.947266 0)"/>
       <use xlink:href="#DejaVuSans-43" transform="translate(451.15625 0)"/>
      </g>
     </g>
    </g>
    <g id="xtick_6">
     <g id="line2d_6">
      <g>
       <use xlink:href="#mcec6c1dbf9" x="652.255932" y="361.087536" style="stroke: #000000; stroke-width: 0.8"/>
      </g>
     </g>
     <g id="text_6">
      <!-- BPI20_RfP -->
      <g transform="translate(589.240564 437.402562) rotate(-45) scale(0.17 -0.17)">
       <defs>
        <path id="DejaVuSans-52" d="M 2841 2188 
Q 3044 2119 3236 1894 
Q 3428 1669 3622 1275 
L 4263 0 
L 3584 0 
L 2988 1197 
Q 2756 1666 2539 1819 
Q 2322 1972 1947 1972 
L 1259 1972 
L 1259 0 
L 628 0 
L 628 4666 
L 2053 4666 
Q 2853 4666 3247 4331 
Q 3641 3997 3641 3322 
Q 3641 2881 3436 2590 
Q 3231 2300 2841 2188 
z
M 1259 4147 
L 1259 2491 
L 2053 2491 
Q 2509 2491 2742 2702 
Q 2975 2913 2975 3322 
Q 2975 3731 2742 3939 
Q 2509 4147 2053 4147 
L 1259 4147 
z
" transform="scale(0.015625)"/>
        <path id="DejaVuSans-66" d="M 2375 4863 
L 2375 4384 
L 1825 4384 
Q 1516 4384 1395 4259 
Q 1275 4134 1275 3809 
L 1275 3500 
L 2222 3500 
L 2222 3053 
L 1275 3053 
L 1275 0 
L 697 0 
L 697 3053 
L 147 3053 
L 147 3500 
L 697 3500 
L 697 3744 
Q 697 4328 969 4595 
Q 1241 4863 1831 4863 
L 2375 4863 
z
" transform="scale(0.015625)"/>
       </defs>
       <use xlink:href="#DejaVuSans-42"/>
       <use xlink:href="#DejaVuSans-50" transform="translate(68.603516 0)"/>
       <use xlink:href="#DejaVuSans-49" transform="translate(128.90625 0)"/>
       <use xlink:href="#DejaVuSans-32" transform="translate(158.398438 0)"/>
       <use xlink:href="#DejaVuSans-30" transform="translate(222.021484 0)"/>
       <use xlink:href="#DejaVuSans-5f" transform="translate(285.644531 0)"/>
       <use xlink:href="#DejaVuSans-52" transform="translate(335.644531 0)"/>
       <use xlink:href="#DejaVuSans-66" transform="translate(405.126953 0)"/>
       <use xlink:href="#DejaVuSans-50" transform="translate(440.332031 0)"/>
      </g>
     </g>
    </g>
    <g id="xtick_7">
     <g id="line2d_7">
      <g>
       <use xlink:href="#mcec6c1dbf9" x="743.816445" y="361.087536" style="stroke: #000000; stroke-width: 0.8"/>
      </g>
     </g>
     <g id="text_7">
      <!-- BPI20_TPD -->
      <g transform="translate(676.787252 441.204145) rotate(-45) scale(0.17 -0.17)">
       <defs>
        <path id="DejaVuSans-44" d="M 1259 4147 
L 1259 519 
L 2022 519 
Q 2988 519 3436 956 
Q 3884 1394 3884 2338 
Q 3884 3275 3436 3711 
Q 2988 4147 2022 4147 
L 1259 4147 
z
M 628 4666 
L 1925 4666 
Q 3281 4666 3915 4102 
Q 4550 3538 4550 2338 
Q 4550 1131 3912 565 
Q 3275 0 1925 0 
L 628 0 
L 628 4666 
z
" transform="scale(0.015625)"/>
       </defs>
       <use xlink:href="#DejaVuSans-42"/>
       <use xlink:href="#DejaVuSans-50" transform="translate(68.603516 0)"/>
       <use xlink:href="#DejaVuSans-49" transform="translate(128.90625 0)"/>
       <use xlink:href="#DejaVuSans-32" transform="translate(158.398438 0)"/>
       <use xlink:href="#DejaVuSans-30" transform="translate(222.021484 0)"/>
       <use xlink:href="#DejaVuSans-5f" transform="translate(285.644531 0)"/>
       <use xlink:href="#DejaVuSans-54" transform="translate(335.644531 0)"/>
       <use xlink:href="#DejaVuSans-50" transform="translate(396.728516 0)"/>
       <use xlink:href="#DejaVuSans-44" transform="translate(457.03125 0)"/>
      </g>
     </g>
    </g>
    <g id="text_8">
     <!-- Dataset -->
     <g transform="translate(429.975531 463.235302) scale(0.2 -0.2)">
      <defs>
       <path id="DejaVuSans-61" d="M 2194 1759 
Q 1497 1759 1228 1600 
Q 959 1441 959 1056 
Q 959 750 1161 570 
Q 1363 391 1709 391 
Q 2188 391 2477 730 
Q 2766 1069 2766 1631 
L 2766 1759 
L 2194 1759 
z
M 3341 1997 
L 3341 0 
L 2766 0 
L 2766 531 
Q 2569 213 2275 61 
Q 1981 -91 1556 -91 
Q 1019 -91 701 211 
Q 384 513 384 1019 
Q 384 1609 779 1909 
Q 1175 2209 1959 2209 
L 2766 2209 
L 2766 2266 
Q 2766 2663 2505 2880 
Q 2244 3097 1772 3097 
Q 1472 3097 1187 3025 
Q 903 2953 641 2809 
L 641 3341 
Q 956 3463 1253 3523 
Q 1550 3584 1831 3584 
Q 2591 3584 2966 3190 
Q 3341 2797 3341 1997 
z
" transform="scale(0.015625)"/>
       <path id="DejaVuSans-74" d="M 1172 4494 
L 1172 3500 
L 2356 3500 
L 2356 3053 
L 1172 3053 
L 1172 1153 
Q 1172 725 1289 603 
Q 1406 481 1766 481 
L 2356 481 
L 2356 0 
L 1766 0 
Q 1100 0 847 248 
Q 594 497 594 1153 
L 594 3053 
L 172 3053 
L 172 3500 
L 594 3500 
L 594 4494 
L 1172 4494 
z
" transform="scale(0.015625)"/>
       <path id="DejaVuSans-73" d="M 2834 3397 
L 2834 2853 
Q 2591 2978 2328 3040 
Q 2066 3103 1784 3103 
Q 1356 3103 1142 2972 
Q 928 2841 928 2578 
Q 928 2378 1081 2264 
Q 1234 2150 1697 2047 
L 1894 2003 
Q 2506 1872 2764 1633 
Q 3022 1394 3022 966 
Q 3022 478 2636 193 
Q 2250 -91 1575 -91 
Q 1294 -91 989 -36 
Q 684 19 347 128 
L 347 722 
Q 666 556 975 473 
Q 1284 391 1588 391 
Q 1994 391 2212 530 
Q 2431 669 2431 922 
Q 2431 1156 2273 1281 
Q 2116 1406 1581 1522 
L 1381 1569 
Q 847 1681 609 1914 
Q 372 2147 372 2553 
Q 372 3047 722 3315 
Q 1072 3584 1716 3584 
Q 2034 3584 2315 3537 
Q 2597 3491 2834 3397 
z
" transform="scale(0.015625)"/>
       <path id="DejaVuSans-65" d="M 3597 1894 
L 3597 1613 
L 953 1613 
Q 991 1019 1311 708 
Q 1631 397 2203 397 
Q 2534 397 2845 478 
Q 3156 559 3463 722 
L 3463 178 
Q 3153 47 2828 -22 
Q 2503 -91 2169 -91 
Q 1331 -91 842 396 
Q 353 884 353 1716 
Q 353 2575 817 3079 
Q 1281 3584 2069 3584 
Q 2775 3584 3186 3129 
Q 3597 2675 3597 1894 
z
M 3022 2063 
Q 3016 2534 2758 2815 
Q 2500 3097 2075 3097 
Q 1594 3097 1305 2825 
Q 1016 2553 972 2059 
L 3022 2063 
z
" transform="scale(0.015625)"/>
      </defs>
      <use xlink:href="#DejaVuSans-44"/>
      <use xlink:href="#DejaVuSans-61" transform="translate(77.001953 0)"/>
      <use xlink:href="#DejaVuSans-74" transform="translate(138.28125 0)"/>
      <use xlink:href="#DejaVuSans-61" transform="translate(177.490234 0)"/>
      <use xlink:href="#DejaVuSans-73" transform="translate(238.769531 0)"/>
      <use xlink:href="#DejaVuSans-65" transform="translate(290.869141 0)"/>
      <use xlink:href="#DejaVuSans-74" transform="translate(352.392578 0)"/>
     </g>
    </g>
   </g>
   <g id="matplotlib.axis_2">
    <g id="ytick_1">
     <g id="line2d_8">
      <path d="M 112.048906 361.087536 
L 826.220906 361.087536 
" clip-path="url(#pec8d89f6ab)" style="fill: none; stroke-dasharray: 1.85,0.8; stroke-dashoffset: 0; stroke: #b0b0b0; stroke-width: 0.5"/>
     </g>
     <g id="line2d_9">
      <defs>
       <path id="m426ccd8056" d="M 0 0 
L -3.5 0 
" style="stroke: #000000; stroke-width: 0.8"/>
      </defs>
      <g>
       <use xlink:href="#m426ccd8056" x="112.048906" y="361.087536" style="stroke: #000000; stroke-width: 0.8"/>
      </g>
     </g>
     <g id="text_9">
      <!-- −0.15 -->
      <g transform="translate(52.951875 367.546207) scale(0.17 -0.17)">
       <defs>
        <path id="DejaVuSans-2212" d="M 678 2272 
L 4684 2272 
L 4684 1741 
L 678 1741 
L 678 2272 
z
" transform="scale(0.015625)"/>
        <path id="DejaVuSans-2e" d="M 684 794 
L 1344 794 
L 1344 0 
L 684 0 
L 684 794 
z
" transform="scale(0.015625)"/>
       </defs>
       <use xlink:href="#DejaVuSans-2212"/>
       <use xlink:href="#DejaVuSans-30" transform="translate(83.789062 0)"/>
       <use xlink:href="#DejaVuSans-2e" transform="translate(147.412109 0)"/>
       <use xlink:href="#DejaVuSans-31" transform="translate(179.199219 0)"/>
       <use xlink:href="#DejaVuSans-35" transform="translate(242.822266 0)"/>
      </g>
     </g>
    </g>
    <g id="ytick_2">
     <g id="line2d_10">
      <path d="M 112.048906 329.503093 
L 826.220906 329.503093 
" clip-path="url(#pec8d89f6ab)" style="fill: none; stroke-dasharray: 1.85,0.8; stroke-dashoffset: 0; stroke: #b0b0b0; stroke-width: 0.5"/>
     </g>
     <g id="line2d_11">
      <g>
       <use xlink:href="#m426ccd8056" x="112.048906" y="329.503093" style="stroke: #000000; stroke-width: 0.8"/>
      </g>
     </g>
     <g id="text_10">
      <!-- −0.10 -->
      <g transform="translate(52.951875 335.961765) scale(0.17 -0.17)">
       <use xlink:href="#DejaVuSans-2212"/>
       <use xlink:href="#DejaVuSans-30" transform="translate(83.789062 0)"/>
       <use xlink:href="#DejaVuSans-2e" transform="translate(147.412109 0)"/>
       <use xlink:href="#DejaVuSans-31" transform="translate(179.199219 0)"/>
       <use xlink:href="#DejaVuSans-30" transform="translate(242.822266 0)"/>
      </g>
     </g>
    </g>
    <g id="ytick_3">
     <g id="line2d_12">
      <path d="M 112.048906 297.918651 
L 826.220906 297.918651 
" clip-path="url(#pec8d89f6ab)" style="fill: none; stroke-dasharray: 1.85,0.8; stroke-dashoffset: 0; stroke: #b0b0b0; stroke-width: 0.5"/>
     </g>
     <g id="line2d_13">
      <g>
       <use xlink:href="#m426ccd8056" x="112.048906" y="297.918651" style="stroke: #000000; stroke-width: 0.8"/>
      </g>
     </g>
     <g id="text_11">
      <!-- −0.05 -->
      <g transform="translate(52.951875 304.377323) scale(0.17 -0.17)">
       <use xlink:href="#DejaVuSans-2212"/>
       <use xlink:href="#DejaVuSans-30" transform="translate(83.789062 0)"/>
       <use xlink:href="#DejaVuSans-2e" transform="translate(147.412109 0)"/>
       <use xlink:href="#DejaVuSans-30" transform="translate(179.199219 0)"/>
       <use xlink:href="#DejaVuSans-35" transform="translate(242.822266 0)"/>
      </g>
     </g>
    </g>
    <g id="ytick_4">
     <g id="line2d_14">
      <path d="M 112.048906 266.334209 
L 826.220906 266.334209 
" clip-path="url(#pec8d89f6ab)" style="fill: none; stroke-dasharray: 1.85,0.8; stroke-dashoffset: 0; stroke: #b0b0b0; stroke-width: 0.5"/>
     </g>
     <g id="line2d_15">
      <g>
       <use xlink:href="#m426ccd8056" x="112.048906" y="266.334209" style="stroke: #000000; stroke-width: 0.8"/>
      </g>
     </g>
     <g id="text_12">
      <!-- 0.00 -->
      <g transform="translate(67.197344 272.792881) scale(0.17 -0.17)">
       <use xlink:href="#DejaVuSans-30"/>
       <use xlink:href="#DejaVuSans-2e" transform="translate(63.623047 0)"/>
       <use xlink:href="#DejaVuSans-30" transform="translate(95.410156 0)"/>
       <use xlink:href="#DejaVuSans-30" transform="translate(159.033203 0)"/>
      </g>
     </g>
    </g>
    <g id="ytick_5">
     <g id="line2d_16">
      <path d="M 112.048906 234.749767 
L 826.220906 234.749767 
" clip-path="url(#pec8d89f6ab)" style="fill: none; stroke-dasharray: 1.85,0.8; stroke-dashoffset: 0; stroke: #b0b0b0; stroke-width: 0.5"/>
     </g>
     <g id="line2d_17">
      <g>
       <use xlink:href="#m426ccd8056" x="112.048906" y="234.749767" style="stroke: #000000; stroke-width: 0.8"/>
      </g>
     </g>
     <g id="text_13">
      <!-- 0.05 -->
      <g transform="translate(67.197344 241.208439) scale(0.17 -0.17)">
       <use xlink:href="#DejaVuSans-30"/>
       <use xlink:href="#DejaVuSans-2e" transform="translate(63.623047 0)"/>
       <use xlink:href="#DejaVuSans-30" transform="translate(95.410156 0)"/>
       <use xlink:href="#DejaVuSans-35" transform="translate(159.033203 0)"/>
      </g>
     </g>
    </g>
    <g id="ytick_6">
     <g id="line2d_18">
      <path d="M 112.048906 203.165325 
L 826.220906 203.165325 
" clip-path="url(#pec8d89f6ab)" style="fill: none; stroke-dasharray: 1.85,0.8; stroke-dashoffset: 0; stroke: #b0b0b0; stroke-width: 0.5"/>
     </g>
     <g id="line2d_19">
      <g>
       <use xlink:href="#m426ccd8056" x="112.048906" y="203.165325" style="stroke: #000000; stroke-width: 0.8"/>
      </g>
     </g>
     <g id="text_14">
      <!-- 0.10 -->
      <g transform="translate(67.197344 209.623997) scale(0.17 -0.17)">
       <use xlink:href="#DejaVuSans-30"/>
       <use xlink:href="#DejaVuSans-2e" transform="translate(63.623047 0)"/>
       <use xlink:href="#DejaVuSans-31" transform="translate(95.410156 0)"/>
       <use xlink:href="#DejaVuSans-30" transform="translate(159.033203 0)"/>
      </g>
     </g>
    </g>
    <g id="ytick_7">
     <g id="line2d_20">
      <path d="M 112.048906 171.580883 
L 826.220906 171.580883 
" clip-path="url(#pec8d89f6ab)" style="fill: none; stroke-dasharray: 1.85,0.8; stroke-dashoffset: 0; stroke: #b0b0b0; stroke-width: 0.5"/>
     </g>
     <g id="line2d_21">
      <g>
       <use xlink:href="#m426ccd8056" x="112.048906" y="171.580883" style="stroke: #000000; stroke-width: 0.8"/>
      </g>
     </g>
     <g id="text_15">
      <!-- 0.15 -->
      <g transform="translate(67.197344 178.039555) scale(0.17 -0.17)">
       <use xlink:href="#DejaVuSans-30"/>
       <use xlink:href="#DejaVuSans-2e" transform="translate(63.623047 0)"/>
       <use xlink:href="#DejaVuSans-31" transform="translate(95.410156 0)"/>
       <use xlink:href="#DejaVuSans-35" transform="translate(159.033203 0)"/>
      </g>
     </g>
    </g>
    <g id="ytick_8">
     <g id="line2d_22">
      <path d="M 112.048906 139.996441 
L 826.220906 139.996441 
" clip-path="url(#pec8d89f6ab)" style="fill: none; stroke-dasharray: 1.85,0.8; stroke-dashoffset: 0; stroke: #b0b0b0; stroke-width: 0.5"/>
     </g>
     <g id="line2d_23">
      <g>
       <use xlink:href="#m426ccd8056" x="112.048906" y="139.996441" style="stroke: #000000; stroke-width: 0.8"/>
      </g>
     </g>
     <g id="text_16">
      <!-- 0.20 -->
      <g transform="translate(67.197344 146.455112) scale(0.17 -0.17)">
       <use xlink:href="#DejaVuSans-30"/>
       <use xlink:href="#DejaVuSans-2e" transform="translate(63.623047 0)"/>
       <use xlink:href="#DejaVuSans-32" transform="translate(95.410156 0)"/>
       <use xlink:href="#DejaVuSans-30" transform="translate(159.033203 0)"/>
      </g>
     </g>
    </g>
    <g id="ytick_9">
     <g id="line2d_24">
      <path d="M 112.048906 108.411998 
L 826.220906 108.411998 
" clip-path="url(#pec8d89f6ab)" style="fill: none; stroke-dasharray: 1.85,0.8; stroke-dashoffset: 0; stroke: #b0b0b0; stroke-width: 0.5"/>
     </g>
     <g id="line2d_25">
      <g>
       <use xlink:href="#m426ccd8056" x="112.048906" y="108.411998" style="stroke: #000000; stroke-width: 0.8"/>
      </g>
     </g>
     <g id="text_17">
      <!-- 0.25 -->
      <g transform="translate(67.197344 114.87067) scale(0.17 -0.17)">
       <use xlink:href="#DejaVuSans-30"/>
       <use xlink:href="#DejaVuSans-2e" transform="translate(63.623047 0)"/>
       <use xlink:href="#DejaVuSans-32" transform="translate(95.410156 0)"/>
       <use xlink:href="#DejaVuSans-35" transform="translate(159.033203 0)"/>
      </g>
     </g>
    </g>
    <g id="ytick_10">
     <g id="line2d_26">
      <path d="M 112.048906 76.827556 
L 826.220906 76.827556 
" clip-path="url(#pec8d89f6ab)" style="fill: none; stroke-dasharray: 1.85,0.8; stroke-dashoffset: 0; stroke: #b0b0b0; stroke-width: 0.5"/>
     </g>
     <g id="line2d_27">
      <g>
       <use xlink:href="#m426ccd8056" x="112.048906" y="76.827556" style="stroke: #000000; stroke-width: 0.8"/>
      </g>
     </g>
     <g id="text_18">
      <!-- 0.30 -->
      <g transform="translate(67.197344 83.286228) scale(0.17 -0.17)">
       <defs>
        <path id="DejaVuSans-33" d="M 2597 2516 
Q 3050 2419 3304 2112 
Q 3559 1806 3559 1356 
Q 3559 666 3084 287 
Q 2609 -91 1734 -91 
Q 1441 -91 1130 -33 
Q 819 25 488 141 
L 488 750 
Q 750 597 1062 519 
Q 1375 441 1716 441 
Q 2309 441 2620 675 
Q 2931 909 2931 1356 
Q 2931 1769 2642 2001 
Q 2353 2234 1838 2234 
L 1294 2234 
L 1294 2753 
L 1863 2753 
Q 2328 2753 2575 2939 
Q 2822 3125 2822 3475 
Q 2822 3834 2567 4026 
Q 2313 4219 1838 4219 
Q 1578 4219 1281 4162 
Q 984 4106 628 3988 
L 628 4550 
Q 988 4650 1302 4700 
Q 1616 4750 1894 4750 
Q 2613 4750 3031 4423 
Q 3450 4097 3450 3541 
Q 3450 3153 3228 2886 
Q 3006 2619 2597 2516 
z
" transform="scale(0.015625)"/>
       </defs>
       <use xlink:href="#DejaVuSans-30"/>
       <use xlink:href="#DejaVuSans-2e" transform="translate(63.623047 0)"/>
       <use xlink:href="#DejaVuSans-33" transform="translate(95.410156 0)"/>
       <use xlink:href="#DejaVuSans-30" transform="translate(159.033203 0)"/>
      </g>
     </g>
    </g>
    <g id="ytick_11">
     <g id="line2d_28">
      <path d="M 112.048906 45.243114 
L 826.220906 45.243114 
" clip-path="url(#pec8d89f6ab)" style="fill: none; stroke-dasharray: 1.85,0.8; stroke-dashoffset: 0; stroke: #b0b0b0; stroke-width: 0.5"/>
     </g>
     <g id="line2d_29">
      <g>
       <use xlink:href="#m426ccd8056" x="112.048906" y="45.243114" style="stroke: #000000; stroke-width: 0.8"/>
      </g>
     </g>
     <g id="text_19">
      <!-- 0.35 -->
      <g transform="translate(67.197344 51.701786) scale(0.17 -0.17)">
       <use xlink:href="#DejaVuSans-30"/>
       <use xlink:href="#DejaVuSans-2e" transform="translate(63.623047 0)"/>
       <use xlink:href="#DejaVuSans-33" transform="translate(95.410156 0)"/>
       <use xlink:href="#DejaVuSans-35" transform="translate(159.033203 0)"/>
      </g>
     </g>
    </g>
    <g id="ytick_12">
     <g id="line2d_30">
      <path d="M 112.048906 13.658672 
L 826.220906 13.658672 
" clip-path="url(#pec8d89f6ab)" style="fill: none; stroke-dasharray: 1.85,0.8; stroke-dashoffset: 0; stroke: #b0b0b0; stroke-width: 0.5"/>
     </g>
     <g id="line2d_31">
      <g>
       <use xlink:href="#m426ccd8056" x="112.048906" y="13.658672" style="stroke: #000000; stroke-width: 0.8"/>
      </g>
     </g>
     <g id="text_20">
      <!-- 0.40 -->
      <g transform="translate(67.197344 20.117344) scale(0.17 -0.17)">
       <defs>
        <path id="DejaVuSans-34" d="M 2419 4116 
L 825 1625 
L 2419 1625 
L 2419 4116 
z
M 2253 4666 
L 3047 4666 
L 3047 1625 
L 3713 1625 
L 3713 1100 
L 3047 1100 
L 3047 0 
L 2419 0 
L 2419 1100 
L 313 1100 
L 313 1709 
L 2253 4666 
z
" transform="scale(0.015625)"/>
       </defs>
       <use xlink:href="#DejaVuSans-30"/>
       <use xlink:href="#DejaVuSans-2e" transform="translate(63.623047 0)"/>
       <use xlink:href="#DejaVuSans-34" transform="translate(95.410156 0)"/>
       <use xlink:href="#DejaVuSans-30" transform="translate(159.033203 0)"/>
      </g>
     </g>
    </g>
    <g id="text_21">
     <!-- $\Delta$ Metric -->
     <g transform="translate(22.396875 228.573104) rotate(-90) scale(0.2 -0.2)">
      <defs>
       <path id="DejaVuSans-394" d="M 2188 4044 
L 906 525 
L 3472 525 
L 2188 4044 
z
M 50 0 
L 1831 4666 
L 2547 4666 
L 4325 0 
L 50 0 
z
" transform="scale(0.015625)"/>
       <path id="DejaVuSans-20" transform="scale(0.015625)"/>
       <path id="DejaVuSans-4d" d="M 628 4666 
L 1569 4666 
L 2759 1491 
L 3956 4666 
L 4897 4666 
L 4897 0 
L 4281 0 
L 4281 4097 
L 3078 897 
L 2444 897 
L 1241 4097 
L 1241 0 
L 628 0 
L 628 4666 
z
" transform="scale(0.015625)"/>
       <path id="DejaVuSans-72" d="M 2631 2963 
Q 2534 3019 2420 3045 
Q 2306 3072 2169 3072 
Q 1681 3072 1420 2755 
Q 1159 2438 1159 1844 
L 1159 0 
L 581 0 
L 581 3500 
L 1159 3500 
L 1159 2956 
Q 1341 3275 1631 3429 
Q 1922 3584 2338 3584 
Q 2397 3584 2469 3576 
Q 2541 3569 2628 3553 
L 2631 2963 
z
" transform="scale(0.015625)"/>
       <path id="DejaVuSans-69" d="M 603 3500 
L 1178 3500 
L 1178 0 
L 603 0 
L 603 3500 
z
M 603 4863 
L 1178 4863 
L 1178 4134 
L 603 4134 
L 603 4863 
z
" transform="scale(0.015625)"/>
       <path id="DejaVuSans-63" d="M 3122 3366 
L 3122 2828 
Q 2878 2963 2633 3030 
Q 2388 3097 2138 3097 
Q 1578 3097 1268 2742 
Q 959 2388 959 1747 
Q 959 1106 1268 751 
Q 1578 397 2138 397 
Q 2388 397 2633 464 
Q 2878 531 3122 666 
L 3122 134 
Q 2881 22 2623 -34 
Q 2366 -91 2075 -91 
Q 1284 -91 818 406 
Q 353 903 353 1747 
Q 353 2603 823 3093 
Q 1294 3584 2113 3584 
Q 2378 3584 2631 3529 
Q 2884 3475 3122 3366 
z
" transform="scale(0.015625)"/>
      </defs>
      <use xlink:href="#DejaVuSans-394" transform="translate(0 0.015625)"/>
      <use xlink:href="#DejaVuSans-20" transform="translate(68.408203 0.015625)"/>
      <use xlink:href="#DejaVuSans-4d" transform="translate(100.195312 0.015625)"/>
      <use xlink:href="#DejaVuSans-65" transform="translate(186.474609 0.015625)"/>
      <use xlink:href="#DejaVuSans-74" transform="translate(247.998047 0.015625)"/>
      <use xlink:href="#DejaVuSans-72" transform="translate(287.207031 0.015625)"/>
      <use xlink:href="#DejaVuSans-69" transform="translate(328.320312 0.015625)"/>
      <use xlink:href="#DejaVuSans-63" transform="translate(356.103516 0.015625)"/>
     </g>
     <!-- (LLM avg. - argmax avg.) -->
     <g transform="translate(44.7925 312.615291) rotate(-90) scale(0.2 -0.2)">
      <defs>
       <path id="DejaVuSans-28" d="M 1984 4856 
Q 1566 4138 1362 3434 
Q 1159 2731 1159 2009 
Q 1159 1288 1364 580 
Q 1569 -128 1984 -844 
L 1484 -844 
Q 1016 -109 783 600 
Q 550 1309 550 2009 
Q 550 2706 781 3412 
Q 1013 4119 1484 4856 
L 1984 4856 
z
" transform="scale(0.015625)"/>
       <path id="DejaVuSans-4c" d="M 628 4666 
L 1259 4666 
L 1259 531 
L 3531 531 
L 3531 0 
L 628 0 
L 628 4666 
z
" transform="scale(0.015625)"/>
       <path id="DejaVuSans-76" d="M 191 3500 
L 800 3500 
L 1894 563 
L 2988 3500 
L 3597 3500 
L 2284 0 
L 1503 0 
L 191 3500 
z
" transform="scale(0.015625)"/>
       <path id="DejaVuSans-67" d="M 2906 1791 
Q 2906 2416 2648 2759 
Q 2391 3103 1925 3103 
Q 1463 3103 1205 2759 
Q 947 2416 947 1791 
Q 947 1169 1205 825 
Q 1463 481 1925 481 
Q 2391 481 2648 825 
Q 2906 1169 2906 1791 
z
M 3481 434 
Q 3481 -459 3084 -895 
Q 2688 -1331 1869 -1331 
Q 1566 -1331 1297 -1286 
Q 1028 -1241 775 -1147 
L 775 -588 
Q 1028 -725 1275 -790 
Q 1522 -856 1778 -856 
Q 2344 -856 2625 -561 
Q 2906 -266 2906 331 
L 2906 616 
Q 2728 306 2450 153 
Q 2172 0 1784 0 
Q 1141 0 747 490 
Q 353 981 353 1791 
Q 353 2603 747 3093 
Q 1141 3584 1784 3584 
Q 2172 3584 2450 3431 
Q 2728 3278 2906 2969 
L 2906 3500 
L 3481 3500 
L 3481 434 
z
" transform="scale(0.015625)"/>
       <path id="DejaVuSans-2d" d="M 313 2009 
L 1997 2009 
L 1997 1497 
L 313 1497 
L 313 2009 
z
" transform="scale(0.015625)"/>
       <path id="DejaVuSans-6d" d="M 3328 2828 
Q 3544 3216 3844 3400 
Q 4144 3584 4550 3584 
Q 5097 3584 5394 3201 
Q 5691 2819 5691 2113 
L 5691 0 
L 5113 0 
L 5113 2094 
Q 5113 2597 4934 2840 
Q 4756 3084 4391 3084 
Q 3944 3084 3684 2787 
Q 3425 2491 3425 1978 
L 3425 0 
L 2847 0 
L 2847 2094 
Q 2847 2600 2669 2842 
Q 2491 3084 2119 3084 
Q 1678 3084 1418 2786 
Q 1159 2488 1159 1978 
L 1159 0 
L 581 0 
L 581 3500 
L 1159 3500 
L 1159 2956 
Q 1356 3278 1631 3431 
Q 1906 3584 2284 3584 
Q 2666 3584 2933 3390 
Q 3200 3197 3328 2828 
z
" transform="scale(0.015625)"/>
       <path id="DejaVuSans-78" d="M 3513 3500 
L 2247 1797 
L 3578 0 
L 2900 0 
L 1881 1375 
L 863 0 
L 184 0 
L 1544 1831 
L 300 3500 
L 978 3500 
L 1906 2253 
L 2834 3500 
L 3513 3500 
z
" transform="scale(0.015625)"/>
       <path id="DejaVuSans-29" d="M 513 4856 
L 1013 4856 
Q 1481 4119 1714 3412 
Q 1947 2706 1947 2009 
Q 1947 1309 1714 600 
Q 1481 -109 1013 -844 
L 513 -844 
Q 928 -128 1133 580 
Q 1338 1288 1338 2009 
Q 1338 2731 1133 3434 
Q 928 4138 513 4856 
z
" transform="scale(0.015625)"/>
      </defs>
      <use xlink:href="#DejaVuSans-28"/>
      <use xlink:href="#DejaVuSans-4c" transform="translate(39.013672 0)"/>
      <use xlink:href="#DejaVuSans-4c" transform="translate(94.726562 0)"/>
      <use xlink:href="#DejaVuSans-4d" transform="translate(150.439453 0)"/>
      <use xlink:href="#DejaVuSans-20" transform="translate(236.71875 0)"/>
      <use xlink:href="#DejaVuSans-61" transform="translate(268.505859 0)"/>
      <use xlink:href="#DejaVuSans-76" transform="translate(329.785156 0)"/>
      <use xlink:href="#DejaVuSans-67" transform="translate(388.964844 0)"/>
      <use xlink:href="#DejaVuSans-2e" transform="translate(452.441406 0)"/>
      <use xlink:href="#DejaVuSans-20" transform="translate(484.228516 0)"/>
      <use xlink:href="#DejaVuSans-2d" transform="translate(516.015625 0)"/>
      <use xlink:href="#DejaVuSans-20" transform="translate(552.099609 0)"/>
      <use xlink:href="#DejaVuSans-61" transform="translate(583.886719 0)"/>
      <use xlink:href="#DejaVuSans-72" transform="translate(645.166016 0)"/>
      <use xlink:href="#DejaVuSans-67" transform="translate(684.529297 0)"/>
      <use xlink:href="#DejaVuSans-6d" transform="translate(748.005859 0)"/>
      <use xlink:href="#DejaVuSans-61" transform="translate(845.417969 0)"/>
      <use xlink:href="#DejaVuSans-78" transform="translate(906.697266 0)"/>
      <use xlink:href="#DejaVuSans-20" transform="translate(965.876953 0)"/>
      <use xlink:href="#DejaVuSans-61" transform="translate(997.664062 0)"/>
      <use xlink:href="#DejaVuSans-76" transform="translate(1058.943359 0)"/>
      <use xlink:href="#DejaVuSans-67" transform="translate(1118.123047 0)"/>
      <use xlink:href="#DejaVuSans-2e" transform="translate(1181.599609 0)"/>
      <use xlink:href="#DejaVuSans-29" transform="translate(1213.386719 0)"/>
     </g>
    </g>
   </g>
   <g id="LineCollection_1">
    <path d="M 178.430278 156.330274 
L 178.430278 99.501871 
" clip-path="url(#pec8d89f6ab)" style="fill: none; stroke: #000000; stroke-width: 1.4"/>
   </g>
   <g id="line2d_32">
    <defs>
     <path id="m055d49eb57" d="M 4 0 
L -4 -0 
" style="stroke: #000000; stroke-width: 1.4"/>
    </defs>
    <g clip-path="url(#pec8d89f6ab)">
     <use xlink:href="#m055d49eb57" x="178.430278" y="156.330274" style="fill: #1f77b4; stroke: #000000; stroke-width: 1.4"/>
    </g>
   </g>
   <g id="line2d_33">
    <g clip-path="url(#pec8d89f6ab)">
     <use xlink:href="#m055d49eb57" x="178.430278" y="99.501871" style="fill: #1f77b4; stroke: #000000; stroke-width: 1.4"/>
    </g>
   </g>
   <g id="LineCollection_2">
    <path d="M 210.476458 50.968686 
L 210.476458 25.44985 
" clip-path="url(#pec8d89f6ab)" style="fill: none; stroke: #000000; stroke-width: 1.4"/>
   </g>
   <g id="line2d_34">
    <g clip-path="url(#pec8d89f6ab)">
     <use xlink:href="#m055d49eb57" x="210.476458" y="50.968686" style="fill: #1f77b4; stroke: #000000; stroke-width: 1.4"/>
    </g>
   </g>
   <g id="line2d_35">
    <g clip-path="url(#pec8d89f6ab)">
     <use xlink:href="#m055d49eb57" x="210.476458" y="25.44985" style="fill: #1f77b4; stroke: #000000; stroke-width: 1.4"/>
    </g>
   </g>
   <g id="LineCollection_3">
    <path d="M 269.990791 285.997506 
L 269.990791 212.521042 
" clip-path="url(#pec8d89f6ab)" style="fill: none; stroke: #000000; stroke-width: 1.4"/>
   </g>
   <g id="line2d_36">
    <g clip-path="url(#pec8d89f6ab)">
     <use xlink:href="#m055d49eb57" x="269.990791" y="285.997506" style="fill: #1f77b4; stroke: #000000; stroke-width: 1.4"/>
    </g>
   </g>
   <g id="line2d_37">
    <g clip-path="url(#pec8d89f6ab)">
     <use xlink:href="#m055d49eb57" x="269.990791" y="212.521042" style="fill: #1f77b4; stroke: #000000; stroke-width: 1.4"/>
    </g>
   </g>
   <g id="LineCollection_4">
    <path d="M 302.03697 297.656276 
L 302.03697 260.287988 
" clip-path="url(#pec8d89f6ab)" style="fill: none; stroke: #000000; stroke-width: 1.4"/>
   </g>
   <g id="line2d_38">
    <g clip-path="url(#pec8d89f6ab)">
     <use xlink:href="#m055d49eb57" x="302.03697" y="297.656276" style="fill: #1f77b4; stroke: #000000; stroke-width: 1.4"/>
    </g>
   </g>
   <g id="line2d_39">
    <g clip-path="url(#pec8d89f6ab)">
     <use xlink:href="#m055d49eb57" x="302.03697" y="260.287988" style="fill: #1f77b4; stroke: #000000; stroke-width: 1.4"/>
    </g>
   </g>
   <g id="LineCollection_5">
    <path d="M 361.551304 224.533768 
L 361.551304 135.480508 
" clip-path="url(#pec8d89f6ab)" style="fill: none; stroke: #000000; stroke-width: 1.4"/>
   </g>
   <g id="line2d_40">
    <g clip-path="url(#pec8d89f6ab)">
     <use xlink:href="#m055d49eb57" x="361.551304" y="224.533768" style="fill: #1f77b4; stroke: #000000; stroke-width: 1.4"/>
    </g>
   </g>
   <g id="line2d_41">
    <g clip-path="url(#pec8d89f6ab)">
     <use xlink:href="#m055d49eb57" x="361.551304" y="135.480508" style="fill: #1f77b4; stroke: #000000; stroke-width: 1.4"/>
    </g>
   </g>
   <g id="LineCollection_6">
    <path d="M 393.597483 153.091498 
L 393.597483 122.434066 
" clip-path="url(#pec8d89f6ab)" style="fill: none; stroke: #000000; stroke-width: 1.4"/>
   </g>
   <g id="line2d_42">
    <g clip-path="url(#pec8d89f6ab)">
     <use xlink:href="#m055d49eb57" x="393.597483" y="153.091498" style="fill: #1f77b4; stroke: #000000; stroke-width: 1.4"/>
    </g>
   </g>
   <g id="line2d_43">
    <g clip-path="url(#pec8d89f6ab)">
     <use xlink:href="#m055d49eb57" x="393.597483" y="122.434066" style="fill: #1f77b4; stroke: #000000; stroke-width: 1.4"/>
    </g>
   </g>
   <g id="LineCollection_7">
    <path d="M 453.111817 322.946192 
L 453.111817 238.204828 
" clip-path="url(#pec8d89f6ab)" style="fill: none; stroke: #000000; stroke-width: 1.4"/>
   </g>
   <g id="line2d_44">
    <g clip-path="url(#pec8d89f6ab)">
     <use xlink:href="#m055d49eb57" x="453.111817" y="322.946192" style="fill: #1f77b4; stroke: #000000; stroke-width: 1.4"/>
    </g>
   </g>
   <g id="line2d_45">
    <g clip-path="url(#pec8d89f6ab)">
     <use xlink:href="#m055d49eb57" x="453.111817" y="238.204828" style="fill: #1f77b4; stroke: #000000; stroke-width: 1.4"/>
    </g>
   </g>
   <g id="LineCollection_8">
    <path d="M 485.157996 239.690121 
L 485.157996 201.832781 
" clip-path="url(#pec8d89f6ab)" style="fill: none; stroke: #000000; stroke-width: 1.4"/>
   </g>
   <g id="line2d_46">
    <g clip-path="url(#pec8d89f6ab)">
     <use xlink:href="#m055d49eb57" x="485.157996" y="239.690121" style="fill: #1f77b4; stroke: #000000; stroke-width: 1.4"/>
    </g>
   </g>
   <g id="line2d_47">
    <g clip-path="url(#pec8d89f6ab)">
     <use xlink:href="#m055d49eb57" x="485.157996" y="201.832781" style="fill: #1f77b4; stroke: #000000; stroke-width: 1.4"/>
    </g>
   </g>
   <g id="LineCollection_9">
    <path d="M 544.672329 282.450986 
L 544.672329 237.609436 
" clip-path="url(#pec8d89f6ab)" style="fill: none; stroke: #000000; stroke-width: 1.4"/>
   </g>
   <g id="line2d_48">
    <g clip-path="url(#pec8d89f6ab)">
     <use xlink:href="#m055d49eb57" x="544.672329" y="282.450986" style="fill: #1f77b4; stroke: #000000; stroke-width: 1.4"/>
    </g>
   </g>
   <g id="line2d_49">
    <g clip-path="url(#pec8d89f6ab)">
     <use xlink:href="#m055d49eb57" x="544.672329" y="237.609436" style="fill: #1f77b4; stroke: #000000; stroke-width: 1.4"/>
    </g>
   </g>
   <g id="LineCollection_10">
    <path d="M 576.718509 330.917377 
L 576.718509 244.79787 
" clip-path="url(#pec8d89f6ab)" style="fill: none; stroke: #000000; stroke-width: 1.4"/>
   </g>
   <g id="line2d_50">
    <g clip-path="url(#pec8d89f6ab)">
     <use xlink:href="#m055d49eb57" x="576.718509" y="330.917377" style="fill: #1f77b4; stroke: #000000; stroke-width: 1.4"/>
    </g>
   </g>
   <g id="line2d_51">
    <g clip-path="url(#pec8d89f6ab)">
     <use xlink:href="#m055d49eb57" x="576.718509" y="244.79787" style="fill: #1f77b4; stroke: #000000; stroke-width: 1.4"/>
    </g>
   </g>
   <g id="LineCollection_11">
    <path d="M 636.232842 281.134452 
L 636.232842 262.034633 
" clip-path="url(#pec8d89f6ab)" style="fill: none; stroke: #000000; stroke-width: 1.4"/>
   </g>
   <g id="line2d_52">
    <g clip-path="url(#pec8d89f6ab)">
     <use xlink:href="#m055d49eb57" x="636.232842" y="281.134452" style="fill: #1f77b4; stroke: #000000; stroke-width: 1.4"/>
    </g>
   </g>
   <g id="line2d_53">
    <g clip-path="url(#pec8d89f6ab)">
     <use xlink:href="#m055d49eb57" x="636.232842" y="262.034633" style="fill: #1f77b4; stroke: #000000; stroke-width: 1.4"/>
    </g>
   </g>
   <g id="LineCollection_12">
    <path d="M 668.279022 299.965673 
L 668.279022 257.935646 
" clip-path="url(#pec8d89f6ab)" style="fill: none; stroke: #000000; stroke-width: 1.4"/>
   </g>
   <g id="line2d_54">
    <g clip-path="url(#pec8d89f6ab)">
     <use xlink:href="#m055d49eb57" x="668.279022" y="299.965673" style="fill: #1f77b4; stroke: #000000; stroke-width: 1.4"/>
    </g>
   </g>
   <g id="line2d_55">
    <g clip-path="url(#pec8d89f6ab)">
     <use xlink:href="#m055d49eb57" x="668.279022" y="257.935646" style="fill: #1f77b4; stroke: #000000; stroke-width: 1.4"/>
    </g>
   </g>
   <g id="LineCollection_13">
    <path d="M 727.793355 332.733768 
L 727.793355 284.429762 
" clip-path="url(#pec8d89f6ab)" style="fill: none; stroke: #000000; stroke-width: 1.4"/>
   </g>
   <g id="line2d_56">
    <g clip-path="url(#pec8d89f6ab)">
     <use xlink:href="#m055d49eb57" x="727.793355" y="332.733768" style="fill: #1f77b4; stroke: #000000; stroke-width: 1.4"/>
    </g>
   </g>
   <g id="line2d_57">
    <g clip-path="url(#pec8d89f6ab)">
     <use xlink:href="#m055d49eb57" x="727.793355" y="284.429762" style="fill: #1f77b4; stroke: #000000; stroke-width: 1.4"/>
    </g>
   </g>
   <g id="LineCollection_14">
    <path d="M 759.839534 329.172694 
L 759.839534 269.45999 
" clip-path="url(#pec8d89f6ab)" style="fill: none; stroke: #000000; stroke-width: 1.4"/>
   </g>
   <g id="line2d_58">
    <g clip-path="url(#pec8d89f6ab)">
     <use xlink:href="#m055d49eb57" x="759.839534" y="329.172694" style="fill: #1f77b4; stroke: #000000; stroke-width: 1.4"/>
    </g>
   </g>
   <g id="line2d_59">
    <g clip-path="url(#pec8d89f6ab)">
     <use xlink:href="#m055d49eb57" x="759.839534" y="269.45999" style="fill: #1f77b4; stroke: #000000; stroke-width: 1.4"/>
    </g>
   </g>
   <g id="line2d_60">
    <path d="M 112.048906 266.334209 
L 826.220906 266.334209 
" clip-path="url(#pec8d89f6ab)" style="fill: none; stroke: #000000; stroke-width: 0.8; stroke-linecap: square"/>
   </g>
   <g id="patch_17">
    <path d="M 112.048906 361.087536 
L 112.048906 13.658672 
" style="fill: none; stroke: #000000; stroke-width: 0.8; stroke-linejoin: miter; stroke-linecap: square"/>
   </g>
   <g id="patch_18">
    <path d="M 112.048906 361.087536 
L 826.220906 361.087536 
" style="fill: none; stroke: #000000; stroke-width: 0.8; stroke-linejoin: miter; stroke-linecap: square"/>
   </g>
   <g id="legend_1">
    <g id="patch_19">
     <path d="M 682.305281 77.164297 
L 814.320906 77.164297 
Q 817.720906 77.164297 817.720906 73.764297 
L 817.720906 25.558672 
Q 817.720906 22.158672 814.320906 22.158672 
L 682.305281 22.158672 
Q 678.905281 22.158672 678.905281 25.558672 
L 678.905281 73.764297 
Q 678.905281 77.164297 682.305281 77.164297 
z
" style="fill: #ffffff; opacity: 0.8; stroke: #cccccc; stroke-linejoin: miter"/>
    </g>
    <g id="patch_20">
     <path d="M 685.705281 41.876016 
L 719.705281 41.876016 
L 719.705281 29.976016 
L 685.705281 29.976016 
z
" style="fill: #1f77b4; stroke: #1f77b4; stroke-linejoin: miter"/>
    </g>
    <g id="text_22">
     <!-- Accuracy -->
     <g transform="translate(733.305281 41.876016) scale(0.17 -0.17)">
      <defs>
       <path id="DejaVuSans-41" d="M 2188 4044 
L 1331 1722 
L 3047 1722 
L 2188 4044 
z
M 1831 4666 
L 2547 4666 
L 4325 0 
L 3669 0 
L 3244 1197 
L 1141 1197 
L 716 0 
L 50 0 
L 1831 4666 
z
" transform="scale(0.015625)"/>
       <path id="DejaVuSans-75" d="M 544 1381 
L 544 3500 
L 1119 3500 
L 1119 1403 
Q 1119 906 1312 657 
Q 1506 409 1894 409 
Q 2359 409 2629 706 
Q 2900 1003 2900 1516 
L 2900 3500 
L 3475 3500 
L 3475 0 
L 2900 0 
L 2900 538 
Q 2691 219 2414 64 
Q 2138 -91 1772 -91 
Q 1169 -91 856 284 
Q 544 659 544 1381 
z
M 1991 3584 
L 1991 3584 
z
" transform="scale(0.015625)"/>
       <path id="DejaVuSans-79" d="M 2059 -325 
Q 1816 -950 1584 -1140 
Q 1353 -1331 966 -1331 
L 506 -1331 
L 506 -850 
L 844 -850 
Q 1081 -850 1212 -737 
Q 1344 -625 1503 -206 
L 1606 56 
L 191 3500 
L 800 3500 
L 1894 763 
L 2988 3500 
L 3597 3500 
L 2059 -325 
z
" transform="scale(0.015625)"/>
      </defs>
      <use xlink:href="#DejaVuSans-41"/>
      <use xlink:href="#DejaVuSans-63" transform="translate(66.658203 0)"/>
      <use xlink:href="#DejaVuSans-63" transform="translate(121.638672 0)"/>
      <use xlink:href="#DejaVuSans-75" transform="translate(176.619141 0)"/>
      <use xlink:href="#DejaVuSans-72" transform="translate(239.998047 0)"/>
      <use xlink:href="#DejaVuSans-61" transform="translate(281.111328 0)"/>
      <use xlink:href="#DejaVuSans-63" transform="translate(342.390625 0)"/>
      <use xlink:href="#DejaVuSans-79" transform="translate(397.371094 0)"/>
     </g>
    </g>
    <g id="patch_21">
     <path d="M 685.705281 66.828828 
L 719.705281 66.828828 
L 719.705281 54.928828 
L 685.705281 54.928828 
z
" style="fill: #ff7f0e; stroke: #ff7f0e; stroke-linejoin: miter"/>
    </g>
    <g id="text_23">
     <!-- F1 -->
     <g transform="translate(733.305281 66.828828) scale(0.17 -0.17)">
      <defs>
       <path id="DejaVuSans-46" d="M 628 4666 
L 3309 4666 
L 3309 4134 
L 1259 4134 
L 1259 2759 
L 3109 2759 
L 3109 2228 
L 1259 2228 
L 1259 0 
L 628 0 
L 628 4666 
z
" transform="scale(0.015625)"/>
      </defs>
      <use xlink:href="#DejaVuSans-46"/>
      <use xlink:href="#DejaVuSans-31" transform="translate(57.519531 0)"/>
     </g>
    </g>
   </g>
  </g>
 </g>
 <defs>
  <clipPath id="pec8d89f6ab">
   <rect x="112.048906" y="13.658672" width="714.172" height="347.428864"/>
  </clipPath>
 </defs>
</svg>
